ffmpeg started on 2025-03-25 at 14:56:37
Report written to "D:\Convert\FFMetrics\reports\vmaf_report-6.txt"
Log level: 32
Command line:
ffmpeg -hide_banner -nostdin -r 24000/1001 -i "G:\\\xc0\xed\xe8\xec\xe5\\\xce\xed\xe3\xee\xe8\xed\xe3\xe8\\!_35_\xcb\xe5\xf2\xee_2024\\DreamCast\\\xc0\xeb\xff \xe8\xed\xee\xe3\xe4\xe0 \xea\xee\xea\xe5\xf2\xed\xe8\xf7\xe0\xe5\xf2 \xf1\xee \xec\xed\xee\xe9 \xef\xee-\xf0\xf3\xf1\xf1\xea\xe8\\[DC] Roshidere - 02_Telegram_HEVC.mkv" -r 24000/1001 -i "G:\\\xc0\xed\xe8\xec\xe5\\\xce\xed\xe3\xee\xe8\xed\xe3\xe8\\!_35_\xcb\xe5\xf2\xee_2024\\DreamCast\\\xc0\xeb\xff \xe8\xed\xee\xe3\xe4\xe0 \xea\xee\xea\xe5\xf2\xed\xe8\xf7\xe0\xe5\xf2 \xf1\xee \xec\xed\xee\xe9 \xef\xee-\xf0\xf3\xf1\xf1\xea\xe8\\[DC] Roshidere - 02_Telegram.mp4" -lavfi "[0:v]settb=AVTB,setpts=PTS-STARTPTS,format=pix_fmts=yuv420p10,fps=24000/1001,scale=1920:1080:flags=bicubic[main];[1:v]settb=AVTB,setpts=PTS-STARTPTS,format=pix_fmts=yuv420p,fps=24000/1001,scale=1920:1080:flags=bicubic[ref];[main][ref]libvmaf=eof_action=endall:log_path='D\\:/Convert/FFMetrics/logs/vmaf_logfile-6.txt':n_threads=32:pool=Mean:model=version=vmaf_v0.6.1" -f null -
Input #0, matroska,webm, from 'G:\Аниме\Онгоинги\!_35_Лето_2024\DreamCast\Аля иногда кокетничает со мной по-русски\[DC] Roshidere - 02_Telegram_HEVC.mkv':
  Metadata:
    COMPATIBLE_BRANDS: isomiso2avc1mp41
    MAJOR_BRAND     : isom
    MINOR_VERSION   : 512
    ENCODER         : Lavf61.7.100
  Duration: 00:24:47.66, start: -0.021000, bitrate: 1049 kb/s
  Stream #0:0: Video: hevc (Main 10), yuv420p10le(tv, bt709, progressive), 1920x1080 [SAR 1:1 DAR 16:9], 23.98 fps, 23.98 tbr, 1k tbn (default)
      Metadata:
        HANDLER_NAME    : VideoHandler
        VENDOR_ID       : [0][0][0][0]
        ENCODER         : Lavc61.19.100 libx265
        BPS             : 852541
        DURATION        : 00:24:46.443708333
        NUMBER_OF_FRAMES: 35639
        NUMBER_OF_BYTES : 158406819
        _STATISTICS_WRITING_APP: mkvpropedit v66.0.0 ('Josie') 64-bit
        _STATISTICS_WRITING_DATE_UTC: 2025-03-21 09:52:15
        _STATISTICS_TAGS: BPS DURATION NUMBER_OF_FRAMES NUMBER_OF_BYTES
  Stream #0:1: Audio: aac (LC), 48000 Hz, stereo, fltp (default)
      Metadata:
        HANDLER_NAME    : SoundHandler
        VENDOR_ID       : [0][0][0][0]
        ENCODER         : Lavc61.19.100 aac
        BPS             : 193270
        DURATION        : 00:24:47.658000000
        NUMBER_OF_FRAMES: 69735
        NUMBER_OF_BYTES : 35939982
        _STATISTICS_WRITING_APP: mkvpropedit v66.0.0 ('Josie') 64-bit
        _STATISTICS_WRITING_DATE_UTC: 2025-03-21 09:52:15
        _STATISTICS_TAGS: BPS DURATION NUMBER_OF_FRAMES NUMBER_OF_BYTES
Input #1, mov,mp4,m4a,3gp,3g2,mj2, from 'G:\Аниме\Онгоинги\!_35_Лето_2024\DreamCast\Аля иногда кокетничает со мной по-русски\[DC] Roshidere - 02_Telegram.mp4':
  Metadata:
    major_brand     : isom
    minor_version   : 512
    compatible_brands: isomiso2avc1mp41
    encoder         : Lavf61.1.100
  Duration: 00:24:47.60, start: 0.000000, bitrate: 3704 kb/s
  Stream #1:0[0x1](und): Video: h264 (High) (avc1 / 0x31637661), yuv420p(tv, bt709, progressive), 1920x1080 [SAR 1:1 DAR 16:9], 3559 kb/s, 23.98 fps, 23.98 tbr, 24k tbn (default)
      Metadata:
        handler_name    : VideoHandler
        vendor_id       : [0][0][0][0]
        encoder         : Lavc61.3.100 h264_qsv
  Stream #1:1[0x2](und): Audio: aac (HE-AACv2) (mp4a / 0x6134706D), 48000 Hz, stereo, fltp, 144 kb/s (default)
      Metadata:
        handler_name    : SoundHandler
        vendor_id       : [0][0][0][0]
Stream mapping:
  Stream #0:0 (hevc) -> settb:default
  Stream #1:0 (h264) -> settb:default
  libvmaf:default -> Stream #0:0 (wrapped_avframe)
  Stream #0:1 -> #0:1 (aac (native) -> pcm_s16le (native))
Output #0, null, to 'pipe:':
  Metadata:
    COMPATIBLE_BRANDS: isomiso2avc1mp41
    MAJOR_BRAND     : isom
    MINOR_VERSION   : 512
    encoder         : Lavf61.7.100
  Stream #0:0: Video: wrapped_avframe, yuv420p10le(tv, bt709, progressive), 1920x1080 [SAR 1:1 DAR 16:9], q=2-31, 200 kb/s, 23.98 fps, 23.98 tbn
      Metadata:
        encoder         : Lavc61.19.100 wrapped_avframe
  Stream #0:1: Audio: pcm_s16le, 48000 Hz, stereo, s16, 1536 kb/s (default)
      Metadata:
        HANDLER_NAME    : SoundHandler
        VENDOR_ID       : [0][0][0][0]
        _STATISTICS_TAGS: BPS DURATION NUMBER_OF_FRAMES NUMBER_OF_BYTES
        BPS             : 193270
        DURATION        : 00:24:47.658000000
        NUMBER_OF_FRAMES: 69735
        NUMBER_OF_BYTES : 35939982
        _STATISTICS_WRITING_APP: mkvpropedit v66.0.0 ('Josie') 64-bit
        _STATISTICS_WRITING_DATE_UTC: 2025-03-21 09:52:15
        encoder         : Lavc61.19.100 pcm_s16le
frame=   38 fps=0.0 q=-0.0 size=N/A time=00:00:01.58 bitrate=N/A speed=3.15x    frame=   87 fps= 85 q=-0.0 size=N/A time=00:00:03.62 bitrate=N/A speed=3.53x    frame=  130 fps= 85 q=-0.0 size=N/A time=00:00:05.42 bitrate=N/A speed=3.53x    frame=  178 fps= 87 q=-0.0 size=N/A time=00:00:07.42 bitrate=N/A speed=3.62x    frame=  224 fps= 87 q=-0.0 size=N/A time=00:00:09.34 bitrate=N/A speed=3.64x    frame=  270 fps= 88 q=-0.0 size=N/A time=00:00:11.26 bitrate=N/A speed=3.66x    frame=  318 fps= 88 q=-0.0 size=N/A time=00:00:13.26 bitrate=N/A speed=3.68x    frame=  364 fps= 89 q=-0.0 size=N/A time=00:00:15.18 bitrate=N/A speed=3.69x    frame=  409 fps= 88 q=-0.0 size=N/A time=00:00:17.05 bitrate=N/A speed=3.68x    frame=  457 fps= 89 q=-0.0 size=N/A time=00:00:19.06 bitrate=N/A speed= 3.7x    frame=  503 fps= 89 q=-0.0 size=N/A time=00:00:20.97 bitrate=N/A speed= 3.7x    frame=  549 fps= 89 q=-0.0 size=N/A time=00:00:22.89 bitrate=N/A speed=3.71x    frame=  596 fps= 89 q=-0.0 size=N/A time=00:00:24.85 bitrate=N/A speed=3.71x    frame=  643 fps= 89 q=-0.0 size=N/A time=00:00:26.81 bitrate=N/A speed=3.72x    frame=  689 fps= 89 q=-0.0 size=N/A time=00:00:28.73 bitrate=N/A speed=3.72x    frame=  735 fps= 89 q=-0.0 size=N/A time=00:00:30.65 bitrate=N/A speed=3.72x    frame=  776 fps= 89 q=-0.0 size=N/A time=00:00:32.36 bitrate=N/A speed= 3.7x    frame=  819 fps= 88 q=-0.0 size=N/A time=00:00:34.15 bitrate=N/A speed=3.69x    frame=  864 fps= 88 q=-0.0 size=N/A time=00:00:36.03 bitrate=N/A speed=3.68x    frame=  908 fps= 88 q=-0.0 size=N/A time=00:00:37.87 bitrate=N/A speed=3.68x    frame=  951 fps= 88 q=-0.0 size=N/A time=00:00:39.66 bitrate=N/A speed=3.67x    frame=  997 fps= 88 q=-0.0 size=N/A time=00:00:41.58 bitrate=N/A speed=3.67x    frame= 1042 fps= 88 q=-0.0 size=N/A time=00:00:43.46 bitrate=N/A speed=3.67x    frame= 1084 fps= 88 q=-0.0 size=N/A time=00:00:45.21 bitrate=N/A speed=3.66x    frame= 1128 fps= 88 q=-0.0 size=N/A time=00:00:47.04 bitrate=N/A speed=3.65x    frame= 1172 fps= 88 q=-0.0 size=N/A time=00:00:48.88 bitrate=N/A speed=3.65x    frame= 1217 fps= 87 q=-0.0 size=N/A time=00:00:50.75 bitrate=N/A speed=3.65x    frame= 1262 fps= 87 q=-0.0 size=N/A time=00:00:52.63 bitrate=N/A speed=3.65x    frame= 1307 fps= 87 q=-0.0 size=N/A time=00:00:54.51 bitrate=N/A speed=3.65x    frame= 1352 fps= 87 q=-0.0 size=N/A time=00:00:56.38 bitrate=N/A speed=3.65x    frame= 1397 fps= 87 q=-0.0 size=N/A time=00:00:58.26 bitrate=N/A speed=3.65x    frame= 1441 fps= 87 q=-0.0 size=N/A time=00:01:00.10 bitrate=N/A speed=3.65x    frame= 1486 fps= 87 q=-0.0 size=N/A time=00:01:01.97 bitrate=N/A speed=3.64x    frame= 1532 fps= 87 q=-0.0 size=N/A time=00:01:03.89 bitrate=N/A speed=3.65x    frame= 1576 fps= 87 q=-0.0 size=N/A time=00:01:05.73 bitrate=N/A speed=3.64x    frame= 1623 fps= 87 q=-0.0 size=N/A time=00:01:07.69 bitrate=N/A speed=3.65x    frame= 1668 fps= 87 q=-0.0 size=N/A time=00:01:09.56 bitrate=N/A speed=3.65x    frame= 1712 fps= 87 q=-0.0 size=N/A time=00:01:11.40 bitrate=N/A speed=3.65x    frame= 1758 fps= 87 q=-0.0 size=N/A time=00:01:13.32 bitrate=N/A speed=3.65x    frame= 1802 fps= 87 q=-0.0 size=N/A time=00:01:15.15 bitrate=N/A speed=3.64x    frame= 1846 fps= 87 q=-0.0 size=N/A time=00:01:16.99 bitrate=N/A speed=3.64x    frame= 1891 fps= 87 q=-0.0 size=N/A time=00:01:18.87 bitrate=N/A speed=3.64x    frame= 1936 fps= 87 q=-0.0 size=N/A time=00:01:20.74 bitrate=N/A speed=3.64x    frame= 1980 fps= 87 q=-0.0 size=N/A time=00:01:22.58 bitrate=N/A speed=3.64x    frame= 2024 fps= 87 q=-0.0 size=N/A time=00:01:24.41 bitrate=N/A speed=3.64x    frame= 2069 fps= 87 q=-0.0 size=N/A time=00:01:26.29 bitrate=N/A speed=3.64x    frame= 2113 fps= 87 q=-0.0 size=N/A time=00:01:28.12 bitrate=N/A speed=3.64x    frame= 2157 fps= 87 q=-0.0 size=N/A time=00:01:29.96 bitrate=N/A speed=3.64x    frame= 2202 fps= 87 q=-0.0 size=N/A time=00:01:31.84 bitrate=N/A speed=3.64x    frame= 2248 fps= 87 q=-0.0 size=N/A time=00:01:33.76 bitrate=N/A speed=3.64x    frame= 2293 fps= 87 q=-0.0 size=N/A time=00:01:35.63 bitrate=N/A speed=3.64x    frame= 2340 fps= 87 q=-0.0 size=N/A time=00:01:37.59 bitrate=N/A speed=3.64x    frame= 2385 fps= 87 q=-0.0 size=N/A time=00:01:39.47 bitrate=N/A speed=3.64x    frame= 2428 fps= 87 q=-0.0 size=N/A time=00:01:41.26 bitrate=N/A speed=3.64x    frame= 2473 fps= 87 q=-0.0 size=N/A time=00:01:43.14 bitrate=N/A speed=3.64x    frame= 2518 fps= 87 q=-0.0 size=N/A time=00:01:45.02 bitrate=N/A speed=3.64x    frame= 2563 fps= 87 q=-0.0 size=N/A time=00:01:46.89 bitrate=N/A speed=3.64x    frame= 2607 fps= 87 q=-0.0 size=N/A time=00:01:48.73 bitrate=N/A speed=3.64x    frame= 2653 fps= 87 q=-0.0 size=N/A time=00:01:50.65 bitrate=N/A speed=3.64x    frame= 2698 fps= 87 q=-0.0 size=N/A time=00:01:52.52 bitrate=N/A speed=3.64x    frame= 2743 fps= 87 q=-0.0 size=N/A time=00:01:54.40 bitrate=N/A speed=3.64x    frame= 2786 fps= 87 q=-0.0 size=N/A time=00:01:56.19 bitrate=N/A speed=3.64x    frame= 2831 fps= 87 q=-0.0 size=N/A time=00:01:58.07 bitrate=N/A speed=3.64x    frame= 2875 fps= 87 q=-0.0 size=N/A time=00:01:59.91 bitrate=N/A speed=3.63x    frame= 2917 fps= 87 q=-0.0 size=N/A time=00:02:01.66 bitrate=N/A speed=3.63x    frame= 2964 fps= 87 q=-0.0 size=N/A time=00:02:03.62 bitrate=N/A speed=3.63x    frame= 3009 fps= 87 q=-0.0 size=N/A time=00:02:05.50 bitrate=N/A speed=3.63x    frame= 3054 fps= 87 q=-0.0 size=N/A time=00:02:07.37 bitrate=N/A speed=3.63x    frame= 3098 fps= 87 q=-0.0 size=N/A time=00:02:09.21 bitrate=N/A speed=3.63x    frame= 3142 fps= 87 q=-0.0 size=N/A time=00:02:11.04 bitrate=N/A speed=3.63x    frame= 3188 fps= 87 q=-0.0 size=N/A time=00:02:12.96 bitrate=N/A speed=3.63x    frame= 3233 fps= 87 q=-0.0 size=N/A time=00:02:14.84 bitrate=N/A speed=3.63x    frame= 3278 fps= 87 q=-0.0 size=N/A time=00:02:16.71 bitrate=N/A speed=3.63x    frame= 3324 fps= 87 q=-0.0 size=N/A time=00:02:18.63 bitrate=N/A speed=3.63x    frame= 3366 fps= 87 q=-0.0 size=N/A time=00:02:20.39 bitrate=N/A speed=3.63x    frame= 3412 fps= 87 q=-0.0 size=N/A time=00:02:22.30 bitrate=N/A speed=3.63x    frame= 3456 fps= 87 q=-0.0 size=N/A time=00:02:24.14 bitrate=N/A speed=3.63x    frame= 3500 fps= 87 q=-0.0 size=N/A time=00:02:25.97 bitrate=N/A speed=3.63x    frame= 3543 fps= 87 q=-0.0 size=N/A time=00:02:27.77 bitrate=N/A speed=3.63x    frame= 3589 fps= 87 q=-0.0 size=N/A time=00:02:29.69 bitrate=N/A speed=3.63x    frame= 3632 fps= 87 q=-0.0 size=N/A time=00:02:31.48 bitrate=N/A speed=3.63x    frame= 3674 fps= 87 q=-0.0 size=N/A time=00:02:33.23 bitrate=N/A speed=3.63x    frame= 3719 fps= 87 q=-0.0 size=N/A time=00:02:35.11 bitrate=N/A speed=3.62x    frame= 3764 fps= 87 q=-0.0 size=N/A time=00:02:36.99 bitrate=N/A speed=3.62x    frame= 3808 fps= 87 q=-0.0 size=N/A time=00:02:38.82 bitrate=N/A speed=3.62x    frame= 3852 fps= 87 q=-0.0 size=N/A time=00:02:40.66 bitrate=N/A speed=3.62x    frame= 3896 fps= 87 q=-0.0 size=N/A time=00:02:42.49 bitrate=N/A speed=3.62x    frame= 3941 fps= 87 q=-0.0 size=N/A time=00:02:44.37 bitrate=N/A speed=3.62x    frame= 3986 fps= 87 q=-0.0 size=N/A time=00:02:46.24 bitrate=N/A speed=3.62x    frame= 4027 fps= 87 q=-0.0 size=N/A time=00:02:47.95 bitrate=N/A speed=3.62x    frame= 4070 fps= 87 q=-0.0 size=N/A time=00:02:49.75 bitrate=N/A speed=3.62x    frame= 4117 fps= 87 q=-0.0 size=N/A time=00:02:51.71 bitrate=N/A speed=3.62x    frame= 4161 fps= 87 q=-0.0 size=N/A time=00:02:53.54 bitrate=N/A speed=3.62x    frame= 4205 fps= 87 q=-0.0 size=N/A time=00:02:55.38 bitrate=N/A speed=3.62x    frame= 4251 fps= 87 q=-0.0 size=N/A time=00:02:57.30 bitrate=N/A speed=3.62x    frame= 4292 fps= 87 q=-0.0 size=N/A time=00:02:59.01 bitrate=N/A speed=3.62x    frame= 4335 fps= 87 q=-0.0 size=N/A time=00:03:00.80 bitrate=N/A speed=3.61x    frame= 4381 fps= 87 q=-0.0 size=N/A time=00:03:02.72 bitrate=N/A speed=3.62x    frame= 4425 fps= 87 q=-0.0 size=N/A time=00:03:04.55 bitrate=N/A speed=3.62x    frame= 4473 fps= 87 q=-0.0 size=N/A time=00:03:06.56 bitrate=N/A speed=3.62x    frame= 4518 fps= 87 q=-0.0 size=N/A time=00:03:08.43 bitrate=N/A speed=3.62x    frame= 4563 fps= 87 q=-0.0 size=N/A time=00:03:10.31 bitrate=N/A speed=3.62x    frame= 4607 fps= 87 q=-0.0 size=N/A time=00:03:12.15 bitrate=N/A speed=3.62x    frame= 4652 fps= 87 q=-0.0 size=N/A time=00:03:14.02 bitrate=N/A speed=3.62x    frame= 4696 fps= 87 q=-0.0 size=N/A time=00:03:15.86 bitrate=N/A speed=3.62x    frame= 4740 fps= 87 q=-0.0 size=N/A time=00:03:17.69 bitrate=N/A speed=3.62x    frame= 4783 fps= 87 q=-0.0 size=N/A time=00:03:19.49 bitrate=N/A speed=3.62x    frame= 4826 fps= 87 q=-0.0 size=N/A time=00:03:21.28 bitrate=N/A speed=3.61x    frame= 4870 fps= 87 q=-0.0 size=N/A time=00:03:23.11 bitrate=N/A speed=3.61x    frame= 4913 fps= 87 q=-0.0 size=N/A time=00:03:24.91 bitrate=N/A speed=3.61x    frame= 4956 fps= 87 q=-0.0 size=N/A time=00:03:26.70 bitrate=N/A speed=3.61x    frame= 5003 fps= 87 q=-0.0 size=N/A time=00:03:28.66 bitrate=N/A speed=3.61x    frame= 5048 fps= 87 q=-0.0 size=N/A time=00:03:30.54 bitrate=N/A speed=3.61x    frame= 5093 fps= 87 q=-0.0 size=N/A time=00:03:32.42 bitrate=N/A speed=3.61x    frame= 5140 fps= 87 q=-0.0 size=N/A time=00:03:34.38 bitrate=N/A speed=3.61x    frame= 5185 fps= 87 q=-0.0 size=N/A time=00:03:36.25 bitrate=N/A speed=3.61x    frame= 5230 fps= 87 q=-0.0 size=N/A time=00:03:38.13 bitrate=N/A speed=3.62x    frame= 5276 fps= 87 q=-0.0 size=N/A time=00:03:40.05 bitrate=N/A speed=3.62x    frame= 5320 fps= 87 q=-0.0 size=N/A time=00:03:41.88 bitrate=N/A speed=3.62x    frame= 5366 fps= 87 q=-0.0 size=N/A time=00:03:43.80 bitrate=N/A speed=3.62x    frame= 5411 fps= 87 q=-0.0 size=N/A time=00:03:45.68 bitrate=N/A speed=3.62x    frame= 5454 fps= 87 q=-0.0 size=N/A time=00:03:47.47 bitrate=N/A speed=3.62x    frame= 5499 fps= 87 q=-0.0 size=N/A time=00:03:49.35 bitrate=N/A speed=3.62x    frame= 5542 fps= 87 q=-0.0 size=N/A time=00:03:51.14 bitrate=N/A speed=3.61x    frame= 5586 fps= 87 q=-0.0 size=N/A time=00:03:52.98 bitrate=N/A speed=3.61x    frame= 5630 fps= 87 q=-0.0 size=N/A time=00:03:54.81 bitrate=N/A speed=3.61x    frame= 5675 fps= 87 q=-0.0 size=N/A time=00:03:56.69 bitrate=N/A speed=3.61x    frame= 5721 fps= 87 q=-0.0 size=N/A time=00:03:58.61 bitrate=N/A speed=3.61x    frame= 5766 fps= 87 q=-0.0 size=N/A time=00:04:00.49 bitrate=N/A speed=3.62x    frame= 5814 fps= 87 q=-0.0 size=N/A time=00:04:02.49 bitrate=N/A speed=3.62x    frame= 5859 fps= 87 q=-0.0 size=N/A time=00:04:04.36 bitrate=N/A speed=3.62x    frame= 5903 fps= 87 q=-0.0 size=N/A time=00:04:06.20 bitrate=N/A speed=3.62x    frame= 5949 fps= 87 q=-0.0 size=N/A time=00:04:08.12 bitrate=N/A speed=3.62x    frame= 5994 fps= 87 q=-0.0 size=N/A time=00:04:09.99 bitrate=N/A speed=3.62x    frame= 6038 fps= 87 q=-0.0 size=N/A time=00:04:11.83 bitrate=N/A speed=3.62x    frame= 6084 fps= 87 q=-0.0 size=N/A time=00:04:13.75 bitrate=N/A speed=3.62x    frame= 6130 fps= 87 q=-0.0 size=N/A time=00:04:15.67 bitrate=N/A speed=3.62x    frame= 6175 fps= 87 q=-0.0 size=N/A time=00:04:17.54 bitrate=N/A speed=3.62x    frame= 6219 fps= 87 q=-0.0 size=N/A time=00:04:19.38 bitrate=N/A speed=3.62x    frame= 6264 fps= 87 q=-0.0 size=N/A time=00:04:21.26 bitrate=N/A speed=3.62x    frame= 6308 fps= 87 q=-0.0 size=N/A time=00:04:23.09 bitrate=N/A speed=3.62x    frame= 6352 fps= 87 q=-0.0 size=N/A time=00:04:24.93 bitrate=N/A speed=3.62x    frame= 6396 fps= 87 q=-0.0 size=N/A time=00:04:26.76 bitrate=N/A speed=3.62x    frame= 6442 fps= 87 q=-0.0 size=N/A time=00:04:28.68 bitrate=N/A speed=3.62x    frame= 6487 fps= 87 q=-0.0 size=N/A time=00:04:30.56 bitrate=N/A speed=3.62x    frame= 6533 fps= 87 q=-0.0 size=N/A time=00:04:32.48 bitrate=N/A speed=3.62x    frame= 6577 fps= 87 q=-0.0 size=N/A time=00:04:34.31 bitrate=N/A speed=3.62x    frame= 6621 fps= 87 q=-0.0 size=N/A time=00:04:36.15 bitrate=N/A speed=3.62x    frame= 6666 fps= 87 q=-0.0 size=N/A time=00:04:38.02 bitrate=N/A speed=3.62x    frame= 6711 fps= 87 q=-0.0 size=N/A time=00:04:39.90 bitrate=N/A speed=3.62x    frame= 6757 fps= 87 q=-0.0 size=N/A time=00:04:41.82 bitrate=N/A speed=3.62x    frame= 6800 fps= 87 q=-0.0 size=N/A time=00:04:43.61 bitrate=N/A speed=3.62x    frame= 6845 fps= 87 q=-0.0 size=N/A time=00:04:45.49 bitrate=N/A speed=3.62x    frame= 6890 fps= 87 q=-0.0 size=N/A time=00:04:47.37 bitrate=N/A speed=3.62x    frame= 6933 fps= 87 q=-0.0 size=N/A time=00:04:49.16 bitrate=N/A speed=3.62x    frame= 6979 fps= 87 q=-0.0 size=N/A time=00:04:51.08 bitrate=N/A speed=3.62x    frame= 7023 fps= 87 q=-0.0 size=N/A time=00:04:52.91 bitrate=N/A speed=3.62x    frame= 7069 fps= 87 q=-0.0 size=N/A time=00:04:54.83 bitrate=N/A speed=3.62x    frame= 7113 fps= 87 q=-0.0 size=N/A time=00:04:56.67 bitrate=N/A speed=3.62x    frame= 7157 fps= 87 q=-0.0 size=N/A time=00:04:58.50 bitrate=N/A speed=3.62x    frame= 7201 fps= 87 q=-0.0 size=N/A time=00:05:00.34 bitrate=N/A speed=3.62x    frame= 7245 fps= 87 q=-0.0 size=N/A time=00:05:02.17 bitrate=N/A speed=3.62x    frame= 7291 fps= 87 q=-0.0 size=N/A time=00:05:04.09 bitrate=N/A speed=3.62x    frame= 7334 fps= 87 q=-0.0 size=N/A time=00:05:05.88 bitrate=N/A speed=3.62x    frame= 7377 fps= 87 q=-0.0 size=N/A time=00:05:07.68 bitrate=N/A speed=3.61x    frame= 7422 fps= 87 q=-0.0 size=N/A time=00:05:09.55 bitrate=N/A speed=3.61x    frame= 7468 fps= 87 q=-0.0 size=N/A time=00:05:11.47 bitrate=N/A speed=3.62x    frame= 7514 fps= 87 q=-0.0 size=N/A time=00:05:13.39 bitrate=N/A speed=3.62x    frame= 7560 fps= 87 q=-0.0 size=N/A time=00:05:15.31 bitrate=N/A speed=3.62x    frame= 7603 fps= 87 q=-0.0 size=N/A time=00:05:17.10 bitrate=N/A speed=3.62x    frame= 7647 fps= 87 q=-0.0 size=N/A time=00:05:18.94 bitrate=N/A speed=3.62x    frame= 7694 fps= 87 q=-0.0 size=N/A time=00:05:20.90 bitrate=N/A speed=3.62x    frame= 7738 fps= 87 q=-0.0 size=N/A time=00:05:22.73 bitrate=N/A speed=3.62x    frame= 7784 fps= 87 q=-0.0 size=N/A time=00:05:24.65 bitrate=N/A speed=3.62x    frame= 7829 fps= 87 q=-0.0 size=N/A time=00:05:26.53 bitrate=N/A speed=3.62x    frame= 7876 fps= 87 q=-0.0 size=N/A time=00:05:28.49 bitrate=N/A speed=3.62x    frame= 7922 fps= 87 q=-0.0 size=N/A time=00:05:30.41 bitrate=N/A speed=3.62x    frame= 7967 fps= 87 q=-0.0 size=N/A time=00:05:32.29 bitrate=N/A speed=3.62x    frame= 8009 fps= 87 q=-0.0 size=N/A time=00:05:34.04 bitrate=N/A speed=3.62x    frame= 8055 fps= 87 q=-0.0 size=N/A time=00:05:35.96 bitrate=N/A speed=3.62x    frame= 8100 fps= 87 q=-0.0 size=N/A time=00:05:37.83 bitrate=N/A speed=3.62x    frame= 8144 fps= 87 q=-0.0 size=N/A time=00:05:39.67 bitrate=N/A speed=3.62x    frame= 8188 fps= 87 q=-0.0 size=N/A time=00:05:41.50 bitrate=N/A speed=3.62x    frame= 8232 fps= 87 q=-0.0 size=N/A time=00:05:43.34 bitrate=N/A speed=3.62x    frame= 8279 fps= 87 q=-0.0 size=N/A time=00:05:45.30 bitrate=N/A speed=3.62x    frame= 8325 fps= 87 q=-0.0 size=N/A time=00:05:47.22 bitrate=N/A speed=3.62x    frame= 8370 fps= 87 q=-0.0 size=N/A time=00:05:49.09 bitrate=N/A speed=3.62x    frame= 8413 fps= 87 q=-0.0 size=N/A time=00:05:50.89 bitrate=N/A speed=3.62x    frame= 8455 fps= 87 q=-0.0 size=N/A time=00:05:52.64 bitrate=N/A speed=3.62x    frame= 8501 fps= 87 q=-0.0 size=N/A time=00:05:54.56 bitrate=N/A speed=3.62x    frame= 8545 fps= 87 q=-0.0 size=N/A time=00:05:56.39 bitrate=N/A speed=3.62x    frame= 8589 fps= 87 q=-0.0 size=N/A time=00:05:58.23 bitrate=N/A speed=3.62x    frame= 8634 fps= 87 q=-0.0 size=N/A time=00:06:00.10 bitrate=N/A speed=3.62x    frame= 8677 fps= 87 q=-0.0 size=N/A time=00:06:01.90 bitrate=N/A speed=3.62x    frame= 8723 fps= 87 q=-0.0 size=N/A time=00:06:03.82 bitrate=N/A speed=3.62x    frame= 8769 fps= 87 q=-0.0 size=N/A time=00:06:05.74 bitrate=N/A speed=3.62x    frame= 8812 fps= 87 q=-0.0 size=N/A time=00:06:07.53 bitrate=N/A speed=3.62x    frame= 8857 fps= 87 q=-0.0 size=N/A time=00:06:09.41 bitrate=N/A speed=3.62x    frame= 8903 fps= 87 q=-0.0 size=N/A time=00:06:11.32 bitrate=N/A speed=3.62x    frame= 8948 fps= 87 q=-0.0 size=N/A time=00:06:13.20 bitrate=N/A speed=3.62x    frame= 8992 fps= 87 q=-0.0 size=N/A time=00:06:15.04 bitrate=N/A speed=3.62x    frame= 9037 fps= 87 q=-0.0 size=N/A time=00:06:16.91 bitrate=N/A speed=3.62x    frame= 9080 fps= 87 q=-0.0 size=N/A time=00:06:18.71 bitrate=N/A speed=3.62x    frame= 9125 fps= 87 q=-0.0 size=N/A time=00:06:20.58 bitrate=N/A speed=3.62x    frame= 9170 fps= 87 q=-0.0 size=N/A time=00:06:22.46 bitrate=N/A speed=3.62x    frame= 9215 fps= 87 q=-0.0 size=N/A time=00:06:24.34 bitrate=N/A speed=3.62x    frame= 9259 fps= 87 q=-0.0 size=N/A time=00:06:26.17 bitrate=N/A speed=3.62x    frame= 9304 fps= 87 q=-0.0 size=N/A time=00:06:28.05 bitrate=N/A speed=3.62x    frame= 9349 fps= 87 q=-0.0 size=N/A time=00:06:29.93 bitrate=N/A speed=3.62x    frame= 9393 fps= 87 q=-0.0 size=N/A time=00:06:31.76 bitrate=N/A speed=3.62x    frame= 9436 fps= 87 q=-0.0 size=N/A time=00:06:33.55 bitrate=N/A speed=3.62x    frame= 9482 fps= 87 q=-0.0 size=N/A time=00:06:35.47 bitrate=N/A speed=3.62x    frame= 9527 fps= 87 q=-0.0 size=N/A time=00:06:37.35 bitrate=N/A speed=3.62x    frame= 9570 fps= 87 q=-0.0 size=N/A time=00:06:39.14 bitrate=N/A speed=3.62x    frame= 9613 fps= 87 q=-0.0 size=N/A time=00:06:40.94 bitrate=N/A speed=3.62x    frame= 9659 fps= 87 q=-0.0 size=N/A time=00:06:42.86 bitrate=N/A speed=3.62x    frame= 9702 fps= 87 q=-0.0 size=N/A time=00:06:44.65 bitrate=N/A speed=3.62x    frame= 9747 fps= 87 q=-0.0 size=N/A time=00:06:46.53 bitrate=N/A speed=3.62x    frame= 9793 fps= 87 q=-0.0 size=N/A time=00:06:48.44 bitrate=N/A speed=3.62x    frame= 9838 fps= 87 q=-0.0 size=N/A time=00:06:50.32 bitrate=N/A speed=3.62x    frame= 9882 fps= 87 q=-0.0 size=N/A time=00:06:52.16 bitrate=N/A speed=3.62x    frame= 9928 fps= 87 q=-0.0 size=N/A time=00:06:54.08 bitrate=N/A speed=3.62x    frame= 9971 fps= 87 q=-0.0 size=N/A time=00:06:55.87 bitrate=N/A speed=3.62x    frame=10017 fps= 87 q=-0.0 size=N/A time=00:06:57.79 bitrate=N/A speed=3.62x    frame=10061 fps= 87 q=-0.0 size=N/A time=00:06:59.62 bitrate=N/A speed=3.62x    frame=10106 fps= 87 q=-0.0 size=N/A time=00:07:01.50 bitrate=N/A speed=3.62x    frame=10152 fps= 87 q=-0.0 size=N/A time=00:07:03.42 bitrate=N/A speed=3.62x    frame=10195 fps= 87 q=-0.0 size=N/A time=00:07:05.21 bitrate=N/A speed=3.62x    frame=10239 fps= 87 q=-0.0 size=N/A time=00:07:07.05 bitrate=N/A speed=3.62x    frame=10288 fps= 87 q=-0.0 size=N/A time=00:07:09.09 bitrate=N/A speed=3.62x    frame=10332 fps= 87 q=-0.0 size=N/A time=00:07:10.93 bitrate=N/A speed=3.62x    frame=10377 fps= 87 q=-0.0 size=N/A time=00:07:12.80 bitrate=N/A speed=3.62x    frame=10422 fps= 87 q=-0.0 size=N/A time=00:07:14.68 bitrate=N/A speed=3.62x    frame=10466 fps= 87 q=-0.0 size=N/A time=00:07:16.51 bitrate=N/A speed=3.62x    frame=10511 fps= 87 q=-0.0 size=N/A time=00:07:18.39 bitrate=N/A speed=3.62x    frame=10556 fps= 87 q=-0.0 size=N/A time=00:07:20.27 bitrate=N/A speed=3.62x    frame=10600 fps= 87 q=-0.0 size=N/A time=00:07:22.10 bitrate=N/A speed=3.62x    frame=10642 fps= 87 q=-0.0 size=N/A time=00:07:23.86 bitrate=N/A speed=3.62x    frame=10687 fps= 87 q=-0.0 size=N/A time=00:07:25.73 bitrate=N/A speed=3.62x    frame=10732 fps= 87 q=-0.0 size=N/A time=00:07:27.61 bitrate=N/A speed=3.62x    frame=10775 fps= 87 q=-0.0 size=N/A time=00:07:29.40 bitrate=N/A speed=3.62x    frame=10820 fps= 87 q=-0.0 size=N/A time=00:07:31.28 bitrate=N/A speed=3.62x    frame=10864 fps= 87 q=-0.0 size=N/A time=00:07:33.11 bitrate=N/A speed=3.62x    frame=10908 fps= 87 q=-0.0 size=N/A time=00:07:34.95 bitrate=N/A speed=3.62x    frame=10956 fps= 87 q=-0.0 size=N/A time=00:07:36.95 bitrate=N/A speed=3.62x    frame=10998 fps= 87 q=-0.0 size=N/A time=00:07:38.70 bitrate=N/A speed=3.62x    frame=11044 fps= 87 q=-0.0 size=N/A time=00:07:40.62 bitrate=N/A speed=3.62x    frame=11091 fps= 87 q=-0.0 size=N/A time=00:07:42.58 bitrate=N/A speed=3.62x    frame=11138 fps= 87 q=-0.0 size=N/A time=00:07:44.54 bitrate=N/A speed=3.62x    frame=11183 fps= 87 q=-0.0 size=N/A time=00:07:46.42 bitrate=N/A speed=3.62x    frame=11228 fps= 87 q=-0.0 size=N/A time=00:07:48.30 bitrate=N/A speed=3.62x    frame=11275 fps= 87 q=-0.0 size=N/A time=00:07:50.26 bitrate=N/A speed=3.62x    frame=11318 fps= 87 q=-0.0 size=N/A time=00:07:52.05 bitrate=N/A speed=3.62x    frame=11363 fps= 87 q=-0.0 size=N/A time=00:07:53.93 bitrate=N/A speed=3.62x    frame=11406 fps= 87 q=-0.0 size=N/A time=00:07:55.72 bitrate=N/A speed=3.62x    frame=11453 fps= 87 q=-0.0 size=N/A time=00:07:57.68 bitrate=N/A speed=3.62x    frame=11497 fps= 87 q=-0.0 size=N/A time=00:07:59.52 bitrate=N/A speed=3.62x    frame=11540 fps= 87 q=-0.0 size=N/A time=00:08:01.31 bitrate=N/A speed=3.62x    frame=11586 fps= 87 q=-0.0 size=N/A time=00:08:03.23 bitrate=N/A speed=3.62x    frame=11630 fps= 87 q=-0.0 size=N/A time=00:08:05.06 bitrate=N/A speed=3.62x    frame=11675 fps= 87 q=-0.0 size=N/A time=00:08:06.94 bitrate=N/A speed=3.62x    frame=11720 fps= 87 q=-0.0 size=N/A time=00:08:08.82 bitrate=N/A speed=3.62x    frame=11766 fps= 87 q=-0.0 size=N/A time=00:08:10.74 bitrate=N/A speed=3.62x    frame=11809 fps= 87 q=-0.0 size=N/A time=00:08:12.53 bitrate=N/A speed=3.62x    frame=11857 fps= 87 q=-0.0 size=N/A time=00:08:14.53 bitrate=N/A speed=3.62x    frame=11903 fps= 87 q=-0.0 size=N/A time=00:08:16.45 bitrate=N/A speed=3.62x    frame=11947 fps= 87 q=-0.0 size=N/A time=00:08:18.28 bitrate=N/A speed=3.62x    frame=11993 fps= 87 q=-0.0 size=N/A time=00:08:20.20 bitrate=N/A speed=3.62x    frame=12037 fps= 87 q=-0.0 size=N/A time=00:08:22.04 bitrate=N/A speed=3.62x    frame=12082 fps= 87 q=-0.0 size=N/A time=00:08:23.92 bitrate=N/A speed=3.62x    frame=12128 fps= 87 q=-0.0 size=N/A time=00:08:25.83 bitrate=N/A speed=3.62x    frame=12171 fps= 87 q=-0.0 size=N/A time=00:08:27.63 bitrate=N/A speed=3.62x    frame=12217 fps= 87 q=-0.0 size=N/A time=00:08:29.55 bitrate=N/A speed=3.62x    frame=12262 fps= 87 q=-0.0 size=N/A time=00:08:31.42 bitrate=N/A speed=3.62x    frame=12305 fps= 87 q=-0.0 size=N/A time=00:08:33.22 bitrate=N/A speed=3.62x    frame=12347 fps= 87 q=-0.0 size=N/A time=00:08:34.97 bitrate=N/A speed=3.62x    frame=12392 fps= 87 q=-0.0 size=N/A time=00:08:36.84 bitrate=N/A speed=3.62x    frame=12434 fps= 87 q=-0.0 size=N/A time=00:08:38.60 bitrate=N/A speed=3.62x    frame=12478 fps= 87 q=-0.0 size=N/A time=00:08:40.43 bitrate=N/A speed=3.62x    frame=12521 fps= 87 q=-0.0 size=N/A time=00:08:42.23 bitrate=N/A speed=3.62x    frame=12569 fps= 87 q=-0.0 size=N/A time=00:08:44.23 bitrate=N/A speed=3.62x    frame=12613 fps= 87 q=-0.0 size=N/A time=00:08:46.06 bitrate=N/A speed=3.62x    frame=12658 fps= 87 q=-0.0 size=N/A time=00:08:47.94 bitrate=N/A speed=3.62x    frame=12704 fps= 87 q=-0.0 size=N/A time=00:08:49.86 bitrate=N/A speed=3.62x    frame=12749 fps= 87 q=-0.0 size=N/A time=00:08:51.73 bitrate=N/A speed=3.62x    frame=12792 fps= 87 q=-0.0 size=N/A time=00:08:53.53 bitrate=N/A speed=3.62x    frame=12836 fps= 87 q=-0.0 size=N/A time=00:08:55.36 bitrate=N/A speed=3.62x    frame=12881 fps= 87 q=-0.0 size=N/A time=00:08:57.24 bitrate=N/A speed=3.62x    frame=12925 fps= 87 q=-0.0 size=N/A time=00:08:59.08 bitrate=N/A speed=3.62x    frame=12969 fps= 87 q=-0.0 size=N/A time=00:09:00.91 bitrate=N/A speed=3.62x    frame=13014 fps= 87 q=-0.0 size=N/A time=00:09:02.79 bitrate=N/A speed=3.62x    frame=13058 fps= 87 q=-0.0 size=N/A time=00:09:04.62 bitrate=N/A speed=3.62x    frame=13103 fps= 87 q=-0.0 size=N/A time=00:09:06.50 bitrate=N/A speed=3.62x    frame=13147 fps= 87 q=-0.0 size=N/A time=00:09:08.33 bitrate=N/A speed=3.62x    frame=13193 fps= 87 q=-0.0 size=N/A time=00:09:10.25 bitrate=N/A speed=3.62x    frame=13237 fps= 87 q=-0.0 size=N/A time=00:09:12.09 bitrate=N/A speed=3.62x    frame=13284 fps= 87 q=-0.0 size=N/A time=00:09:14.05 bitrate=N/A speed=3.62x    frame=13329 fps= 87 q=-0.0 size=N/A time=00:09:15.93 bitrate=N/A speed=3.62x    frame=13375 fps= 87 q=-0.0 size=N/A time=00:09:17.84 bitrate=N/A speed=3.62x    frame=13419 fps= 87 q=-0.0 size=N/A time=00:09:19.68 bitrate=N/A speed=3.62x    frame=13461 fps= 87 q=-0.0 size=N/A time=00:09:21.43 bitrate=N/A speed=3.62x    frame=13508 fps= 87 q=-0.0 size=N/A time=00:09:23.39 bitrate=N/A speed=3.62x    frame=13551 fps= 87 q=-0.0 size=N/A time=00:09:25.18 bitrate=N/A speed=3.62x    frame=13594 fps= 87 q=-0.0 size=N/A time=00:09:26.98 bitrate=N/A speed=3.62x    frame=13639 fps= 87 q=-0.0 size=N/A time=00:09:28.85 bitrate=N/A speed=3.62x    frame=13684 fps= 87 q=-0.0 size=N/A time=00:09:30.73 bitrate=N/A speed=3.62x    frame=13727 fps= 87 q=-0.0 size=N/A time=00:09:32.53 bitrate=N/A speed=3.62x    frame=13770 fps= 87 q=-0.0 size=N/A time=00:09:34.32 bitrate=N/A speed=3.62x    frame=13812 fps= 87 q=-0.0 size=N/A time=00:09:36.07 bitrate=N/A speed=3.61x    frame=13852 fps= 87 q=-0.0 size=N/A time=00:09:37.74 bitrate=N/A speed=3.61x    frame=13897 fps= 87 q=-0.0 size=N/A time=00:09:39.62 bitrate=N/A speed=3.61x    frame=13939 fps= 87 q=-0.0 size=N/A time=00:09:41.37 bitrate=N/A speed=3.61x    frame=13983 fps= 87 q=-0.0 size=N/A time=00:09:43.20 bitrate=N/A speed=3.61x    frame=14027 fps= 87 q=-0.0 size=N/A time=00:09:45.04 bitrate=N/A speed=3.61x    frame=14073 fps= 87 q=-0.0 size=N/A time=00:09:46.96 bitrate=N/A speed=3.61x    frame=14119 fps= 87 q=-0.0 size=N/A time=00:09:48.87 bitrate=N/A speed=3.61x    frame=14162 fps= 87 q=-0.0 size=N/A time=00:09:50.67 bitrate=N/A speed=3.61x    frame=14207 fps= 87 q=-0.0 size=N/A time=00:09:52.55 bitrate=N/A speed=3.61x    frame=14254 fps= 87 q=-0.0 size=N/A time=00:09:54.51 bitrate=N/A speed=3.61x    frame=14297 fps= 87 q=-0.0 size=N/A time=00:09:56.30 bitrate=N/A speed=3.61x    frame=14343 fps= 87 q=-0.0 size=N/A time=00:09:58.22 bitrate=N/A speed=3.61x    frame=14390 fps= 87 q=-0.0 size=N/A time=00:10:00.18 bitrate=N/A speed=3.61x    frame=14436 fps= 87 q=-0.0 size=N/A time=00:10:02.10 bitrate=N/A speed=3.61x    frame=14480 fps= 87 q=-0.0 size=N/A time=00:10:03.93 bitrate=N/A speed=3.61x    frame=14528 fps= 87 q=-0.0 size=N/A time=00:10:05.93 bitrate=N/A speed=3.61x    frame=14570 fps= 87 q=-0.0 size=N/A time=00:10:07.69 bitrate=N/A speed=3.61x    frame=14615 fps= 87 q=-0.0 size=N/A time=00:10:09.56 bitrate=N/A speed=3.61x    frame=14659 fps= 87 q=-0.0 size=N/A time=00:10:11.40 bitrate=N/A speed=3.61x    frame=14704 fps= 87 q=-0.0 size=N/A time=00:10:13.27 bitrate=N/A speed=3.61x    frame=14745 fps= 87 q=-0.0 size=N/A time=00:10:14.98 bitrate=N/A speed=3.61x    frame=14791 fps= 87 q=-0.0 size=N/A time=00:10:16.90 bitrate=N/A speed=3.61x    frame=14835 fps= 87 q=-0.0 size=N/A time=00:10:18.74 bitrate=N/A speed=3.61x    frame=14877 fps= 87 q=-0.0 size=N/A time=00:10:20.49 bitrate=N/A speed=3.61x    frame=14923 fps= 87 q=-0.0 size=N/A time=00:10:22.41 bitrate=N/A speed=3.61x    frame=14968 fps= 87 q=-0.0 size=N/A time=00:10:24.29 bitrate=N/A speed=3.61x    frame=15012 fps= 87 q=-0.0 size=N/A time=00:10:26.12 bitrate=N/A speed=3.61x    frame=15056 fps= 87 q=-0.0 size=N/A time=00:10:27.96 bitrate=N/A speed=3.61x    frame=15100 fps= 87 q=-0.0 size=N/A time=00:10:29.79 bitrate=N/A speed=3.61x    frame=15140 fps= 87 q=-0.0 size=N/A time=00:10:31.46 bitrate=N/A speed=3.61x    frame=15186 fps= 87 q=-0.0 size=N/A time=00:10:33.38 bitrate=N/A speed=3.61x    frame=15230 fps= 87 q=-0.0 size=N/A time=00:10:35.21 bitrate=N/A speed=3.61x    frame=15273 fps= 87 q=-0.0 size=N/A time=00:10:37.01 bitrate=N/A speed=3.61x    frame=15318 fps= 87 q=-0.0 size=N/A time=00:10:38.88 bitrate=N/A speed=3.61x    frame=15364 fps= 87 q=-0.0 size=N/A time=00:10:40.80 bitrate=N/A speed=3.61x    frame=15409 fps= 87 q=-0.0 size=N/A time=00:10:42.68 bitrate=N/A speed=3.61x    frame=15454 fps= 87 q=-0.0 size=N/A time=00:10:44.56 bitrate=N/A speed=3.61x    frame=15497 fps= 87 q=-0.0 size=N/A time=00:10:46.35 bitrate=N/A speed=3.61x    frame=15542 fps= 87 q=-0.0 size=N/A time=00:10:48.23 bitrate=N/A speed=3.61x    frame=15587 fps= 87 q=-0.0 size=N/A time=00:10:50.10 bitrate=N/A speed=3.61x    frame=15632 fps= 87 q=-0.0 size=N/A time=00:10:51.98 bitrate=N/A speed=3.61x    frame=15677 fps= 87 q=-0.0 size=N/A time=00:10:53.86 bitrate=N/A speed=3.61x    frame=15721 fps= 87 q=-0.0 size=N/A time=00:10:55.69 bitrate=N/A speed=3.61x    frame=15767 fps= 87 q=-0.0 size=N/A time=00:10:57.61 bitrate=N/A speed=3.61x    frame=15813 fps= 87 q=-0.0 size=N/A time=00:10:59.53 bitrate=N/A speed=3.61x    frame=15858 fps= 87 q=-0.0 size=N/A time=00:11:01.41 bitrate=N/A speed=3.61x    frame=15905 fps= 87 q=-0.0 size=N/A time=00:11:03.37 bitrate=N/A speed=3.61x    frame=15951 fps= 87 q=-0.0 size=N/A time=00:11:05.28 bitrate=N/A speed=3.61x    frame=15996 fps= 87 q=-0.0 size=N/A time=00:11:07.16 bitrate=N/A speed=3.61x    frame=16038 fps= 87 q=-0.0 size=N/A time=00:11:08.91 bitrate=N/A speed=3.61x    frame=16084 fps= 87 q=-0.0 size=N/A time=00:11:10.83 bitrate=N/A speed=3.61x    frame=16129 fps= 87 q=-0.0 size=N/A time=00:11:12.71 bitrate=N/A speed=3.61x    frame=16173 fps= 87 q=-0.0 size=N/A time=00:11:14.54 bitrate=N/A speed=3.61x    frame=16220 fps= 87 q=-0.0 size=N/A time=00:11:16.50 bitrate=N/A speed=3.61x    frame=16263 fps= 87 q=-0.0 size=N/A time=00:11:18.30 bitrate=N/A speed=3.61x    frame=16310 fps= 87 q=-0.0 size=N/A time=00:11:20.26 bitrate=N/A speed=3.61x    frame=16355 fps= 87 q=-0.0 size=N/A time=00:11:22.13 bitrate=N/A speed=3.61x    frame=16398 fps= 87 q=-0.0 size=N/A time=00:11:23.93 bitrate=N/A speed=3.61x    frame=16445 fps= 87 q=-0.0 size=N/A time=00:11:25.89 bitrate=N/A speed=3.61x    frame=16489 fps= 87 q=-0.0 size=N/A time=00:11:27.72 bitrate=N/A speed=3.61x    frame=16534 fps= 87 q=-0.0 size=N/A time=00:11:29.60 bitrate=N/A speed=3.61x    frame=16580 fps= 87 q=-0.0 size=N/A time=00:11:31.52 bitrate=N/A speed=3.61x    frame=16624 fps= 87 q=-0.0 size=N/A time=00:11:33.35 bitrate=N/A speed=3.61x    frame=16669 fps= 87 q=-0.0 size=N/A time=00:11:35.23 bitrate=N/A speed=3.61x    frame=16716 fps= 87 q=-0.0 size=N/A time=00:11:37.19 bitrate=N/A speed=3.61x    frame=16760 fps= 87 q=-0.0 size=N/A time=00:11:39.03 bitrate=N/A speed=3.61x    frame=16804 fps= 87 q=-0.0 size=N/A time=00:11:40.86 bitrate=N/A speed=3.61x    frame=16849 fps= 87 q=-0.0 size=N/A time=00:11:42.74 bitrate=N/A speed=3.61x    frame=16894 fps= 87 q=-0.0 size=N/A time=00:11:44.62 bitrate=N/A speed=3.61x    frame=16941 fps= 87 q=-0.0 size=N/A time=00:11:46.58 bitrate=N/A speed=3.61x    frame=16986 fps= 87 q=-0.0 size=N/A time=00:11:48.45 bitrate=N/A speed=3.61x    frame=17028 fps= 87 q=-0.0 size=N/A time=00:11:50.20 bitrate=N/A speed=3.61x    frame=17073 fps= 87 q=-0.0 size=N/A time=00:11:52.08 bitrate=N/A speed=3.61x    frame=17119 fps= 87 q=-0.0 size=N/A time=00:11:54.00 bitrate=N/A speed=3.61x    frame=17164 fps= 87 q=-0.0 size=N/A time=00:11:55.88 bitrate=N/A speed=3.61x    frame=17210 fps= 87 q=-0.0 size=N/A time=00:11:57.80 bitrate=N/A speed=3.61x    frame=17256 fps= 87 q=-0.0 size=N/A time=00:11:59.71 bitrate=N/A speed=3.61x    frame=17303 fps= 87 q=-0.0 size=N/A time=00:12:01.67 bitrate=N/A speed=3.62x    frame=17348 fps= 87 q=-0.0 size=N/A time=00:12:03.55 bitrate=N/A speed=3.62x    frame=17394 fps= 87 q=-0.0 size=N/A time=00:12:05.47 bitrate=N/A speed=3.62x    frame=17440 fps= 87 q=-0.0 size=N/A time=00:12:07.39 bitrate=N/A speed=3.62x    frame=17487 fps= 87 q=-0.0 size=N/A time=00:12:09.35 bitrate=N/A speed=3.62x    frame=17532 fps= 87 q=-0.0 size=N/A time=00:12:11.23 bitrate=N/A speed=3.62x    frame=17577 fps= 87 q=-0.0 size=N/A time=00:12:13.10 bitrate=N/A speed=3.62x    frame=17622 fps= 87 q=-0.0 size=N/A time=00:12:14.98 bitrate=N/A speed=3.62x    frame=17669 fps= 87 q=-0.0 size=N/A time=00:12:16.94 bitrate=N/A speed=3.62x    frame=17711 fps= 87 q=-0.0 size=N/A time=00:12:18.69 bitrate=N/A speed=3.62x    frame=17755 fps= 87 q=-0.0 size=N/A time=00:12:20.53 bitrate=N/A speed=3.62x    frame=17799 fps= 87 q=-0.0 size=N/A time=00:12:22.36 bitrate=N/A speed=3.62x    frame=17842 fps= 87 q=-0.0 size=N/A time=00:12:24.16 bitrate=N/A speed=3.62x    frame=17887 fps= 87 q=-0.0 size=N/A time=00:12:26.03 bitrate=N/A speed=3.62x    frame=17930 fps= 87 q=-0.0 size=N/A time=00:12:27.83 bitrate=N/A speed=3.62x    frame=17975 fps= 87 q=-0.0 size=N/A time=00:12:29.70 bitrate=N/A speed=3.62x    frame=18020 fps= 87 q=-0.0 size=N/A time=00:12:31.58 bitrate=N/A speed=3.62x    frame=18063 fps= 87 q=-0.0 size=N/A time=00:12:33.37 bitrate=N/A speed=3.62x    frame=18109 fps= 87 q=-0.0 size=N/A time=00:12:35.29 bitrate=N/A speed=3.62x    frame=18154 fps= 87 q=-0.0 size=N/A time=00:12:37.17 bitrate=N/A speed=3.62x    frame=18197 fps= 87 q=-0.0 size=N/A time=00:12:38.96 bitrate=N/A speed=3.62x    frame=18240 fps= 87 q=-0.0 size=N/A time=00:12:40.76 bitrate=N/A speed=3.62x    frame=18287 fps= 87 q=-0.0 size=N/A time=00:12:42.72 bitrate=N/A speed=3.62x    frame=18331 fps= 87 q=-0.0 size=N/A time=00:12:44.55 bitrate=N/A speed=3.62x    frame=18375 fps= 87 q=-0.0 size=N/A time=00:12:46.39 bitrate=N/A speed=3.62x    frame=18422 fps= 87 q=-0.0 size=N/A time=00:12:48.35 bitrate=N/A speed=3.62x    frame=18465 fps= 87 q=-0.0 size=N/A time=00:12:50.14 bitrate=N/A speed=3.62x    frame=18508 fps= 87 q=-0.0 size=N/A time=00:12:51.93 bitrate=N/A speed=3.62x    frame=18552 fps= 87 q=-0.0 size=N/A time=00:12:53.77 bitrate=N/A speed=3.61x    frame=18595 fps= 87 q=-0.0 size=N/A time=00:12:55.56 bitrate=N/A speed=3.61x    frame=18639 fps= 87 q=-0.0 size=N/A time=00:12:57.40 bitrate=N/A speed=3.61x    frame=18682 fps= 87 q=-0.0 size=N/A time=00:12:59.19 bitrate=N/A speed=3.61x    frame=18726 fps= 87 q=-0.0 size=N/A time=00:13:01.03 bitrate=N/A speed=3.61x    frame=18768 fps= 87 q=-0.0 size=N/A time=00:13:02.78 bitrate=N/A speed=3.61x    frame=18813 fps= 87 q=-0.0 size=N/A time=00:13:04.65 bitrate=N/A speed=3.61x    frame=18855 fps= 87 q=-0.0 size=N/A time=00:13:06.41 bitrate=N/A speed=3.61x    frame=18899 fps= 87 q=-0.0 size=N/A time=00:13:08.24 bitrate=N/A speed=3.61x    frame=18945 fps= 87 q=-0.0 size=N/A time=00:13:10.16 bitrate=N/A speed=3.61x    frame=18990 fps= 87 q=-0.0 size=N/A time=00:13:12.04 bitrate=N/A speed=3.61x    frame=19034 fps= 87 q=-0.0 size=N/A time=00:13:13.87 bitrate=N/A speed=3.61x    frame=19080 fps= 87 q=-0.0 size=N/A time=00:13:15.79 bitrate=N/A speed=3.61x    frame=19124 fps= 87 q=-0.0 size=N/A time=00:13:17.63 bitrate=N/A speed=3.61x    frame=19167 fps= 87 q=-0.0 size=N/A time=00:13:19.42 bitrate=N/A speed=3.61x    frame=19213 fps= 87 q=-0.0 size=N/A time=00:13:21.34 bitrate=N/A speed=3.61x    frame=19257 fps= 87 q=-0.0 size=N/A time=00:13:23.17 bitrate=N/A speed=3.61x    frame=19302 fps= 87 q=-0.0 size=N/A time=00:13:25.05 bitrate=N/A speed=3.61x    frame=19349 fps= 87 q=-0.0 size=N/A time=00:13:27.01 bitrate=N/A speed=3.61x    frame=19392 fps= 87 q=-0.0 size=N/A time=00:13:28.80 bitrate=N/A speed=3.61x    frame=19437 fps= 87 q=-0.0 size=N/A time=00:13:30.68 bitrate=N/A speed=3.61x    frame=19479 fps= 87 q=-0.0 size=N/A time=00:13:32.43 bitrate=N/A speed=3.61x    frame=19524 fps= 87 q=-0.0 size=N/A time=00:13:34.31 bitrate=N/A speed=3.61x    frame=19570 fps= 87 q=-0.0 size=N/A time=00:13:36.27 bitrate=N/A speed=3.61x    frame=19615 fps= 87 q=-0.0 size=N/A time=00:13:38.10 bitrate=N/A speed=3.61x    frame=19656 fps= 87 q=-0.0 size=N/A time=00:13:39.81 bitrate=N/A speed=3.61x    frame=19702 fps= 87 q=-0.0 size=N/A time=00:13:41.73 bitrate=N/A speed=3.61x    frame=19746 fps= 87 q=-0.0 size=N/A time=00:13:43.57 bitrate=N/A speed=3.61x    frame=19791 fps= 87 q=-0.0 size=N/A time=00:13:45.44 bitrate=N/A speed=3.61x    frame=19833 fps= 87 q=-0.0 size=N/A time=00:13:47.20 bitrate=N/A speed=3.61x    frame=19878 fps= 87 q=-0.0 size=N/A time=00:13:49.07 bitrate=N/A speed=3.61x    frame=19921 fps= 87 q=-0.0 size=N/A time=00:13:50.87 bitrate=N/A speed=3.61x    frame=19968 fps= 87 q=-0.0 size=N/A time=00:13:52.83 bitrate=N/A speed=3.61x    frame=20012 fps= 87 q=-0.0 size=N/A time=00:13:54.66 bitrate=N/A speed=3.61x    frame=20056 fps= 87 q=-0.0 size=N/A time=00:13:56.50 bitrate=N/A speed=3.61x    frame=20099 fps= 87 q=-0.0 size=N/A time=00:13:58.29 bitrate=N/A speed=3.61x    frame=20146 fps= 87 q=-0.0 size=N/A time=00:14:00.25 bitrate=N/A speed=3.61x    frame=20188 fps= 87 q=-0.0 size=N/A time=00:14:02.00 bitrate=N/A speed=3.61x    frame=20234 fps= 87 q=-0.0 size=N/A time=00:14:03.92 bitrate=N/A speed=3.61x    frame=20281 fps= 87 q=-0.0 size=N/A time=00:14:05.88 bitrate=N/A speed=3.61x    frame=20324 fps= 87 q=-0.0 size=N/A time=00:14:07.68 bitrate=N/A speed=3.61x    frame=20369 fps= 87 q=-0.0 size=N/A time=00:14:09.55 bitrate=N/A speed=3.61x    frame=20414 fps= 87 q=-0.0 size=N/A time=00:14:11.43 bitrate=N/A speed=3.61x    frame=20458 fps= 87 q=-0.0 size=N/A time=00:14:13.26 bitrate=N/A speed=3.61x    frame=20501 fps= 87 q=-0.0 size=N/A time=00:14:15.06 bitrate=N/A speed=3.61x    frame=20546 fps= 87 q=-0.0 size=N/A time=00:14:16.93 bitrate=N/A speed=3.61x    frame=20588 fps= 87 q=-0.0 size=N/A time=00:14:18.69 bitrate=N/A speed=3.61x    frame=20632 fps= 87 q=-0.0 size=N/A time=00:14:20.52 bitrate=N/A speed=3.61x    frame=20675 fps= 87 q=-0.0 size=N/A time=00:14:22.31 bitrate=N/A speed=3.61x    frame=20722 fps= 87 q=-0.0 size=N/A time=00:14:24.28 bitrate=N/A speed=3.61x    frame=20765 fps= 87 q=-0.0 size=N/A time=00:14:26.07 bitrate=N/A speed=3.61x    frame=20811 fps= 87 q=-0.0 size=N/A time=00:14:27.99 bitrate=N/A speed=3.61x    frame=20854 fps= 87 q=-0.0 size=N/A time=00:14:29.78 bitrate=N/A speed=3.61x    frame=20899 fps= 87 q=-0.0 size=N/A time=00:14:31.66 bitrate=N/A speed=3.61x    frame=20945 fps= 87 q=-0.0 size=N/A time=00:14:33.58 bitrate=N/A speed=3.61x    frame=20989 fps= 87 q=-0.0 size=N/A time=00:14:35.41 bitrate=N/A speed=3.61x    frame=21036 fps= 87 q=-0.0 size=N/A time=00:14:37.37 bitrate=N/A speed=3.61x    frame=21078 fps= 87 q=-0.0 size=N/A time=00:14:39.12 bitrate=N/A speed=3.61x    frame=21122 fps= 87 q=-0.0 size=N/A time=00:14:40.96 bitrate=N/A speed=3.61x    frame=21167 fps= 87 q=-0.0 size=N/A time=00:14:42.84 bitrate=N/A speed=3.61x    frame=21210 fps= 87 q=-0.0 size=N/A time=00:14:44.63 bitrate=N/A speed=3.61x    frame=21254 fps= 87 q=-0.0 size=N/A time=00:14:46.46 bitrate=N/A speed=3.61x    frame=21298 fps= 87 q=-0.0 size=N/A time=00:14:48.30 bitrate=N/A speed=3.61x    frame=21340 fps= 87 q=-0.0 size=N/A time=00:14:50.05 bitrate=N/A speed=3.61x    frame=21385 fps= 87 q=-0.0 size=N/A time=00:14:51.93 bitrate=N/A speed=3.61x    frame=21431 fps= 87 q=-0.0 size=N/A time=00:14:53.85 bitrate=N/A speed=3.61x    frame=21475 fps= 87 q=-0.0 size=N/A time=00:14:55.68 bitrate=N/A speed=3.61x    frame=21519 fps= 87 q=-0.0 size=N/A time=00:14:57.52 bitrate=N/A speed=3.61x    frame=21567 fps= 87 q=-0.0 size=N/A time=00:14:59.52 bitrate=N/A speed=3.61x    frame=21611 fps= 87 q=-0.0 size=N/A time=00:15:01.35 bitrate=N/A speed=3.61x    frame=21654 fps= 87 q=-0.0 size=N/A time=00:15:03.15 bitrate=N/A speed=3.61x    frame=21701 fps= 87 q=-0.0 size=N/A time=00:15:05.11 bitrate=N/A speed=3.61x    frame=21745 fps= 87 q=-0.0 size=N/A time=00:15:06.94 bitrate=N/A speed=3.61x    frame=21789 fps= 87 q=-0.0 size=N/A time=00:15:08.78 bitrate=N/A speed=3.61x    frame=21834 fps= 87 q=-0.0 size=N/A time=00:15:10.65 bitrate=N/A speed=3.61x    frame=21879 fps= 87 q=-0.0 size=N/A time=00:15:12.53 bitrate=N/A speed=3.61x    frame=21923 fps= 87 q=-0.0 size=N/A time=00:15:14.37 bitrate=N/A speed=3.61x    frame=21966 fps= 87 q=-0.0 size=N/A time=00:15:16.16 bitrate=N/A speed=3.61x    frame=22009 fps= 87 q=-0.0 size=N/A time=00:15:17.95 bitrate=N/A speed=3.61x    frame=22055 fps= 87 q=-0.0 size=N/A time=00:15:19.87 bitrate=N/A speed=3.61x    frame=22100 fps= 87 q=-0.0 size=N/A time=00:15:21.75 bitrate=N/A speed=3.61x    frame=22143 fps= 87 q=-0.0 size=N/A time=00:15:23.54 bitrate=N/A speed=3.61x    frame=22189 fps= 87 q=-0.0 size=N/A time=00:15:25.46 bitrate=N/A speed=3.61x    frame=22235 fps= 87 q=-0.0 size=N/A time=00:15:27.38 bitrate=N/A speed=3.61x    frame=22279 fps= 87 q=-0.0 size=N/A time=00:15:29.21 bitrate=N/A speed=3.61x    frame=22325 fps= 87 q=-0.0 size=N/A time=00:15:31.13 bitrate=N/A speed=3.61x    frame=22369 fps= 87 q=-0.0 size=N/A time=00:15:32.97 bitrate=N/A speed=3.61x    frame=22413 fps= 87 q=-0.0 size=N/A time=00:15:34.80 bitrate=N/A speed=3.61x    frame=22458 fps= 87 q=-0.0 size=N/A time=00:15:36.68 bitrate=N/A speed=3.61x    frame=22503 fps= 87 q=-0.0 size=N/A time=00:15:38.56 bitrate=N/A speed=3.61x    frame=22549 fps= 87 q=-0.0 size=N/A time=00:15:40.48 bitrate=N/A speed=3.61x    frame=22595 fps= 87 q=-0.0 size=N/A time=00:15:42.39 bitrate=N/A speed=3.61x    frame=22641 fps= 87 q=-0.0 size=N/A time=00:15:44.31 bitrate=N/A speed=3.61x    frame=22686 fps= 87 q=-0.0 size=N/A time=00:15:46.19 bitrate=N/A speed=3.61x    frame=22734 fps= 87 q=-0.0 size=N/A time=00:15:48.19 bitrate=N/A speed=3.61x    frame=22780 fps= 87 q=-0.0 size=N/A time=00:15:50.11 bitrate=N/A speed=3.61x    frame=22824 fps= 87 q=-0.0 size=N/A time=00:15:51.95 bitrate=N/A speed=3.61x    frame=22870 fps= 87 q=-0.0 size=N/A time=00:15:53.86 bitrate=N/A speed=3.61x    frame=22915 fps= 87 q=-0.0 size=N/A time=00:15:55.74 bitrate=N/A speed=3.61x    frame=22960 fps= 87 q=-0.0 size=N/A time=00:15:57.62 bitrate=N/A speed=3.61x    frame=23003 fps= 87 q=-0.0 size=N/A time=00:15:59.41 bitrate=N/A speed=3.61x    frame=23046 fps= 87 q=-0.0 size=N/A time=00:16:01.21 bitrate=N/A speed=3.61x    frame=23091 fps= 87 q=-0.0 size=N/A time=00:16:03.08 bitrate=N/A speed=3.61x    frame=23135 fps= 87 q=-0.0 size=N/A time=00:16:04.92 bitrate=N/A speed=3.61x    frame=23181 fps= 87 q=-0.0 size=N/A time=00:16:06.84 bitrate=N/A speed=3.61x    frame=23226 fps= 87 q=-0.0 size=N/A time=00:16:08.71 bitrate=N/A speed=3.61x    frame=23271 fps= 87 q=-0.0 size=N/A time=00:16:10.59 bitrate=N/A speed=3.61x    frame=23317 fps= 87 q=-0.0 size=N/A time=00:16:12.51 bitrate=N/A speed=3.61x    frame=23360 fps= 87 q=-0.0 size=N/A time=00:16:14.30 bitrate=N/A speed=3.61x    frame=23406 fps= 87 q=-0.0 size=N/A time=00:16:16.22 bitrate=N/A speed=3.61x    frame=23450 fps= 87 q=-0.0 size=N/A time=00:16:18.06 bitrate=N/A speed=3.61x    frame=23495 fps= 87 q=-0.0 size=N/A time=00:16:19.93 bitrate=N/A speed=3.61x    frame=23539 fps= 87 q=-0.0 size=N/A time=00:16:21.77 bitrate=N/A speed=3.61x    frame=23583 fps= 87 q=-0.0 size=N/A time=00:16:23.60 bitrate=N/A speed=3.61x    frame=23628 fps= 87 q=-0.0 size=N/A time=00:16:25.48 bitrate=N/A speed=3.61x    frame=23673 fps= 87 q=-0.0 size=N/A time=00:16:27.36 bitrate=N/A speed=3.61x    frame=23718 fps= 87 q=-0.0 size=N/A time=00:16:29.23 bitrate=N/A speed=3.61x    frame=23763 fps= 87 q=-0.0 size=N/A time=00:16:31.11 bitrate=N/A speed=3.61x    frame=23807 fps= 87 q=-0.0 size=N/A time=00:16:32.95 bitrate=N/A speed=3.61x    frame=23851 fps= 87 q=-0.0 size=N/A time=00:16:34.78 bitrate=N/A speed=3.61x    frame=23900 fps= 87 q=-0.0 size=N/A time=00:16:36.82 bitrate=N/A speed=3.61x    frame=23945 fps= 87 q=-0.0 size=N/A time=00:16:38.70 bitrate=N/A speed=3.61x    frame=23988 fps= 87 q=-0.0 size=N/A time=00:16:40.49 bitrate=N/A speed=3.61x    frame=24034 fps= 87 q=-0.0 size=N/A time=00:16:42.41 bitrate=N/A speed=3.61x    frame=24079 fps= 87 q=-0.0 size=N/A time=00:16:44.29 bitrate=N/A speed=3.61x    frame=24122 fps= 87 q=-0.0 size=N/A time=00:16:46.08 bitrate=N/A speed=3.61x    frame=24169 fps= 87 q=-0.0 size=N/A time=00:16:48.04 bitrate=N/A speed=3.61x    frame=24211 fps= 87 q=-0.0 size=N/A time=00:16:49.80 bitrate=N/A speed=3.61x    frame=24255 fps= 87 q=-0.0 size=N/A time=00:16:51.63 bitrate=N/A speed=3.61x    frame=24300 fps= 87 q=-0.0 size=N/A time=00:16:53.51 bitrate=N/A speed=3.61x    frame=24347 fps= 87 q=-0.0 size=N/A time=00:16:55.47 bitrate=N/A speed=3.61x    frame=24391 fps= 87 q=-0.0 size=N/A time=00:16:57.30 bitrate=N/A speed=3.61x    frame=24437 fps= 87 q=-0.0 size=N/A time=00:16:59.22 bitrate=N/A speed=3.61x    frame=24483 fps= 87 q=-0.0 size=N/A time=00:17:01.14 bitrate=N/A speed=3.61x    frame=24526 fps= 87 q=-0.0 size=N/A time=00:17:02.93 bitrate=N/A speed=3.61x    frame=24572 fps= 87 q=-0.0 size=N/A time=00:17:04.85 bitrate=N/A speed=3.61x    frame=24616 fps= 87 q=-0.0 size=N/A time=00:17:06.69 bitrate=N/A speed=3.61x    frame=24660 fps= 87 q=-0.0 size=N/A time=00:17:08.52 bitrate=N/A speed=3.61x    frame=24704 fps= 87 q=-0.0 size=N/A time=00:17:10.36 bitrate=N/A speed=3.61x    frame=24748 fps= 87 q=-0.0 size=N/A time=00:17:12.19 bitrate=N/A speed=3.61x    frame=24790 fps= 87 q=-0.0 size=N/A time=00:17:13.94 bitrate=N/A speed=3.61x    frame=24838 fps= 87 q=-0.0 size=N/A time=00:17:15.95 bitrate=N/A speed=3.61x    frame=24885 fps= 87 q=-0.0 size=N/A time=00:17:17.91 bitrate=N/A speed=3.61x    frame=24930 fps= 87 q=-0.0 size=N/A time=00:17:19.78 bitrate=N/A speed=3.61x    frame=24975 fps= 87 q=-0.0 size=N/A time=00:17:21.66 bitrate=N/A speed=3.61x    frame=25019 fps= 87 q=-0.0 size=N/A time=00:17:23.50 bitrate=N/A speed=3.61x    frame=25064 fps= 87 q=-0.0 size=N/A time=00:17:25.37 bitrate=N/A speed=3.61x    frame=25109 fps= 87 q=-0.0 size=N/A time=00:17:27.25 bitrate=N/A speed=3.61x    frame=25154 fps= 87 q=-0.0 size=N/A time=00:17:29.13 bitrate=N/A speed=3.61x    frame=25197 fps= 87 q=-0.0 size=N/A time=00:17:30.92 bitrate=N/A speed=3.61x    frame=25240 fps= 87 q=-0.0 size=N/A time=00:17:32.71 bitrate=N/A speed=3.61x    frame=25284 fps= 87 q=-0.0 size=N/A time=00:17:34.55 bitrate=N/A speed=3.61x    frame=25326 fps= 87 q=-0.0 size=N/A time=00:17:36.30 bitrate=N/A speed=3.61x    frame=25371 fps= 87 q=-0.0 size=N/A time=00:17:38.18 bitrate=N/A speed=3.61x    frame=25416 fps= 87 q=-0.0 size=N/A time=00:17:40.05 bitrate=N/A speed=3.61x    frame=25457 fps= 87 q=-0.0 size=N/A time=00:17:41.76 bitrate=N/A speed=3.61x    frame=25502 fps= 87 q=-0.0 size=N/A time=00:17:43.64 bitrate=N/A speed=3.61x    frame=25546 fps= 87 q=-0.0 size=N/A time=00:17:45.48 bitrate=N/A speed=3.61x    frame=25590 fps= 87 q=-0.0 size=N/A time=00:17:47.31 bitrate=N/A speed=3.61x    frame=25637 fps= 87 q=-0.0 size=N/A time=00:17:49.27 bitrate=N/A speed=3.61x    frame=25679 fps= 87 q=-0.0 size=N/A time=00:17:51.02 bitrate=N/A speed=3.61x    frame=25725 fps= 87 q=-0.0 size=N/A time=00:17:52.94 bitrate=N/A speed=3.61x    frame=25767 fps= 87 q=-0.0 size=N/A time=00:17:54.69 bitrate=N/A speed=3.61x    frame=25814 fps= 87 q=-0.0 size=N/A time=00:17:56.65 bitrate=N/A speed=3.61x    frame=25858 fps= 87 q=-0.0 size=N/A time=00:17:58.49 bitrate=N/A speed=3.61x    frame=25903 fps= 87 q=-0.0 size=N/A time=00:18:00.37 bitrate=N/A speed=3.61x    frame=25947 fps= 87 q=-0.0 size=N/A time=00:18:02.20 bitrate=N/A speed=3.61x    frame=25993 fps= 87 q=-0.0 size=N/A time=00:18:04.12 bitrate=N/A speed=3.61x    frame=26040 fps= 87 q=-0.0 size=N/A time=00:18:06.08 bitrate=N/A speed=3.61x    frame=26084 fps= 87 q=-0.0 size=N/A time=00:18:07.92 bitrate=N/A speed=3.61x    frame=26129 fps= 87 q=-0.0 size=N/A time=00:18:09.79 bitrate=N/A speed=3.61x    frame=26173 fps= 87 q=-0.0 size=N/A time=00:18:11.63 bitrate=N/A speed=3.61x    frame=26215 fps= 87 q=-0.0 size=N/A time=00:18:13.38 bitrate=N/A speed=3.61x    frame=26258 fps= 87 q=-0.0 size=N/A time=00:18:15.17 bitrate=N/A speed=3.61x    frame=26304 fps= 87 q=-0.0 size=N/A time=00:18:17.09 bitrate=N/A speed=3.61x    frame=26348 fps= 87 q=-0.0 size=N/A time=00:18:18.93 bitrate=N/A speed=3.61x    frame=26392 fps= 87 q=-0.0 size=N/A time=00:18:20.76 bitrate=N/A speed=3.61x    frame=26436 fps= 87 q=-0.0 size=N/A time=00:18:22.60 bitrate=N/A speed=3.61x    frame=26480 fps= 87 q=-0.0 size=N/A time=00:18:24.43 bitrate=N/A speed=3.61x    frame=26523 fps= 87 q=-0.0 size=N/A time=00:18:26.23 bitrate=N/A speed=3.61x    frame=26568 fps= 87 q=-0.0 size=N/A time=00:18:28.10 bitrate=N/A speed=3.61x    frame=26611 fps= 87 q=-0.0 size=N/A time=00:18:29.90 bitrate=N/A speed=3.61x    frame=26655 fps= 87 q=-0.0 size=N/A time=00:18:31.73 bitrate=N/A speed=3.61x    frame=26698 fps= 87 q=-0.0 size=N/A time=00:18:33.52 bitrate=N/A speed=3.61x    frame=26741 fps= 87 q=-0.0 size=N/A time=00:18:35.32 bitrate=N/A speed=3.61x    frame=26787 fps= 87 q=-0.0 size=N/A time=00:18:37.24 bitrate=N/A speed=3.61x    frame=26831 fps= 87 q=-0.0 size=N/A time=00:18:39.07 bitrate=N/A speed=3.61x    frame=26874 fps= 87 q=-0.0 size=N/A time=00:18:40.86 bitrate=N/A speed=3.61x    frame=26918 fps= 87 q=-0.0 size=N/A time=00:18:42.70 bitrate=N/A speed=3.61x    frame=26960 fps= 87 q=-0.0 size=N/A time=00:18:44.45 bitrate=N/A speed=3.61x    frame=27005 fps= 87 q=-0.0 size=N/A time=00:18:46.33 bitrate=N/A speed=3.61x    frame=27050 fps= 87 q=-0.0 size=N/A time=00:18:48.21 bitrate=N/A speed=3.61x    frame=27093 fps= 87 q=-0.0 size=N/A time=00:18:50.00 bitrate=N/A speed=3.61x    frame=27136 fps= 87 q=-0.0 size=N/A time=00:18:51.79 bitrate=N/A speed=3.61x    frame=27181 fps= 87 q=-0.0 size=N/A time=00:18:53.67 bitrate=N/A speed=3.61x    frame=27224 fps= 87 q=-0.0 size=N/A time=00:18:55.46 bitrate=N/A speed=3.61x    frame=27271 fps= 87 q=-0.0 size=N/A time=00:18:57.42 bitrate=N/A speed=3.61x    frame=27313 fps= 87 q=-0.0 size=N/A time=00:18:59.17 bitrate=N/A speed=3.61x    frame=27357 fps= 87 q=-0.0 size=N/A time=00:19:01.01 bitrate=N/A speed=3.61x    frame=27400 fps= 87 q=-0.0 size=N/A time=00:19:02.80 bitrate=N/A speed=3.61x    frame=27445 fps= 87 q=-0.0 size=N/A time=00:19:04.68 bitrate=N/A speed=3.61x    frame=27488 fps= 87 q=-0.0 size=N/A time=00:19:06.47 bitrate=N/A speed=3.61x    frame=27535 fps= 87 q=-0.0 size=N/A time=00:19:08.43 bitrate=N/A speed=3.61x    frame=27577 fps= 87 q=-0.0 size=N/A time=00:19:10.19 bitrate=N/A speed=3.61x    frame=27623 fps= 87 q=-0.0 size=N/A time=00:19:12.10 bitrate=N/A speed=3.61x    frame=27668 fps= 87 q=-0.0 size=N/A time=00:19:13.98 bitrate=N/A speed=3.61x    frame=27713 fps= 87 q=-0.0 size=N/A time=00:19:15.86 bitrate=N/A speed=3.61x    frame=27759 fps= 87 q=-0.0 size=N/A time=00:19:17.78 bitrate=N/A speed=3.61x    frame=27804 fps= 87 q=-0.0 size=N/A time=00:19:19.65 bitrate=N/A speed=3.61x    frame=27849 fps= 87 q=-0.0 size=N/A time=00:19:21.53 bitrate=N/A speed=3.61x    frame=27894 fps= 87 q=-0.0 size=N/A time=00:19:23.41 bitrate=N/A speed=3.61x    frame=27938 fps= 87 q=-0.0 size=N/A time=00:19:25.24 bitrate=N/A speed=3.61x    frame=27982 fps= 87 q=-0.0 size=N/A time=00:19:27.08 bitrate=N/A speed=3.61x    frame=28029 fps= 87 q=-0.0 size=N/A time=00:19:29.04 bitrate=N/A speed=3.61x    frame=28073 fps= 87 q=-0.0 size=N/A time=00:19:30.87 bitrate=N/A speed=3.61x    frame=28120 fps= 87 q=-0.0 size=N/A time=00:19:32.83 bitrate=N/A speed=3.61x    frame=28163 fps= 87 q=-0.0 size=N/A time=00:19:34.63 bitrate=N/A speed=3.61x    frame=28210 fps= 87 q=-0.0 size=N/A time=00:19:36.59 bitrate=N/A speed=3.61x    frame=28254 fps= 87 q=-0.0 size=N/A time=00:19:38.42 bitrate=N/A speed=3.61x    frame=28299 fps= 87 q=-0.0 size=N/A time=00:19:40.30 bitrate=N/A speed=3.61x    frame=28345 fps= 87 q=-0.0 size=N/A time=00:19:42.22 bitrate=N/A speed=3.61x    frame=28391 fps= 87 q=-0.0 size=N/A time=00:19:44.14 bitrate=N/A speed=3.61x    frame=28436 fps= 87 q=-0.0 size=N/A time=00:19:46.01 bitrate=N/A speed=3.61x    frame=28482 fps= 87 q=-0.0 size=N/A time=00:19:47.93 bitrate=N/A speed=3.61x    frame=28526 fps= 87 q=-0.0 size=N/A time=00:19:49.77 bitrate=N/A speed=3.61x    frame=28571 fps= 87 q=-0.0 size=N/A time=00:19:51.64 bitrate=N/A speed=3.61x    frame=28617 fps= 87 q=-0.0 size=N/A time=00:19:53.56 bitrate=N/A speed=3.61x    frame=28662 fps= 87 q=-0.0 size=N/A time=00:19:55.44 bitrate=N/A speed=3.61x    frame=28708 fps= 87 q=-0.0 size=N/A time=00:19:57.36 bitrate=N/A speed=3.61x    frame=28751 fps= 87 q=-0.0 size=N/A time=00:19:59.15 bitrate=N/A speed=3.61x    frame=28793 fps= 87 q=-0.0 size=N/A time=00:20:00.90 bitrate=N/A speed=3.61x    frame=28839 fps= 87 q=-0.0 size=N/A time=00:20:02.82 bitrate=N/A speed=3.61x    frame=28882 fps= 87 q=-0.0 size=N/A time=00:20:04.62 bitrate=N/A speed=3.61x    frame=28930 fps= 87 q=-0.0 size=N/A time=00:20:06.62 bitrate=N/A speed=3.61x    frame=28976 fps= 87 q=-0.0 size=N/A time=00:20:08.54 bitrate=N/A speed=3.61x    frame=29021 fps= 87 q=-0.0 size=N/A time=00:20:10.41 bitrate=N/A speed=3.61x    frame=29065 fps= 87 q=-0.0 size=N/A time=00:20:12.25 bitrate=N/A speed=3.61x    frame=29110 fps= 87 q=-0.0 size=N/A time=00:20:14.12 bitrate=N/A speed=3.61x    frame=29156 fps= 87 q=-0.0 size=N/A time=00:20:16.04 bitrate=N/A speed=3.61x    frame=29201 fps= 87 q=-0.0 size=N/A time=00:20:17.92 bitrate=N/A speed=3.61x    frame=29245 fps= 87 q=-0.0 size=N/A time=00:20:19.76 bitrate=N/A speed=3.61x    frame=29291 fps= 87 q=-0.0 size=N/A time=00:20:21.67 bitrate=N/A speed=3.61x    frame=29336 fps= 87 q=-0.0 size=N/A time=00:20:23.55 bitrate=N/A speed=3.61x    frame=29380 fps= 87 q=-0.0 size=N/A time=00:20:25.39 bitrate=N/A speed=3.61x    frame=29427 fps= 87 q=-0.0 size=N/A time=00:20:27.35 bitrate=N/A speed=3.61x    frame=29470 fps= 87 q=-0.0 size=N/A time=00:20:29.14 bitrate=N/A speed=3.61x    frame=29514 fps= 87 q=-0.0 size=N/A time=00:20:30.97 bitrate=N/A speed=3.61x    frame=29557 fps= 87 q=-0.0 size=N/A time=00:20:32.77 bitrate=N/A speed=3.61x    frame=29602 fps= 87 q=-0.0 size=N/A time=00:20:34.65 bitrate=N/A speed=3.61x    frame=29647 fps= 87 q=-0.0 size=N/A time=00:20:36.52 bitrate=N/A speed=3.61x    frame=29690 fps= 87 q=-0.0 size=N/A time=00:20:38.32 bitrate=N/A speed=3.61x    frame=29736 fps= 87 q=-0.0 size=N/A time=00:20:40.23 bitrate=N/A speed=3.61x    frame=29780 fps= 87 q=-0.0 size=N/A time=00:20:42.07 bitrate=N/A speed=3.61x    frame=29824 fps= 87 q=-0.0 size=N/A time=00:20:43.90 bitrate=N/A speed=3.61x    frame=29868 fps= 87 q=-0.0 size=N/A time=00:20:45.74 bitrate=N/A speed=3.61x    frame=29912 fps= 87 q=-0.0 size=N/A time=00:20:47.57 bitrate=N/A speed=3.61x    frame=29957 fps= 87 q=-0.0 size=N/A time=00:20:49.45 bitrate=N/A speed=3.61x    frame=30004 fps= 87 q=-0.0 size=N/A time=00:20:51.41 bitrate=N/A speed=3.61x    frame=30048 fps= 87 q=-0.0 size=N/A time=00:20:53.25 bitrate=N/A speed=3.61x    frame=30093 fps= 87 q=-0.0 size=N/A time=00:20:55.12 bitrate=N/A speed=3.61x    frame=30138 fps= 87 q=-0.0 size=N/A time=00:20:57.00 bitrate=N/A speed=3.61x    frame=30182 fps= 87 q=-0.0 size=N/A time=00:20:58.84 bitrate=N/A speed=3.61x    frame=30224 fps= 87 q=-0.0 size=N/A time=00:21:00.59 bitrate=N/A speed=3.61x    frame=30268 fps= 87 q=-0.0 size=N/A time=00:21:02.42 bitrate=N/A speed=3.61x    frame=30312 fps= 87 q=-0.0 size=N/A time=00:21:04.26 bitrate=N/A speed=3.61x    frame=30355 fps= 87 q=-0.0 size=N/A time=00:21:06.05 bitrate=N/A speed=3.61x    frame=30401 fps= 87 q=-0.0 size=N/A time=00:21:07.97 bitrate=N/A speed=3.61x    frame=30446 fps= 87 q=-0.0 size=N/A time=00:21:09.85 bitrate=N/A speed=3.61x    frame=30492 fps= 87 q=-0.0 size=N/A time=00:21:11.77 bitrate=N/A speed=3.61x    frame=30538 fps= 87 q=-0.0 size=N/A time=00:21:13.68 bitrate=N/A speed=3.61x    frame=30582 fps= 87 q=-0.0 size=N/A time=00:21:15.52 bitrate=N/A speed=3.61x    frame=30626 fps= 87 q=-0.0 size=N/A time=00:21:17.35 bitrate=N/A speed=3.61x    frame=30673 fps= 87 q=-0.0 size=N/A time=00:21:19.31 bitrate=N/A speed=3.61x    frame=30718 fps= 87 q=-0.0 size=N/A time=00:21:21.19 bitrate=N/A speed=3.61x    frame=30764 fps= 87 q=-0.0 size=N/A time=00:21:23.11 bitrate=N/A speed=3.61x    frame=30810 fps= 87 q=-0.0 size=N/A time=00:21:25.03 bitrate=N/A speed=3.61x    frame=30854 fps= 87 q=-0.0 size=N/A time=00:21:26.86 bitrate=N/A speed=3.61x    frame=30899 fps= 87 q=-0.0 size=N/A time=00:21:28.74 bitrate=N/A speed=3.61x    frame=30947 fps= 87 q=-0.0 size=N/A time=00:21:30.74 bitrate=N/A speed=3.61x    frame=30991 fps= 87 q=-0.0 size=N/A time=00:21:32.58 bitrate=N/A speed=3.61x    frame=31037 fps= 87 q=-0.0 size=N/A time=00:21:34.50 bitrate=N/A speed=3.61x    frame=31081 fps= 87 q=-0.0 size=N/A time=00:21:36.33 bitrate=N/A speed=3.61x    frame=31127 fps= 87 q=-0.0 size=N/A time=00:21:38.25 bitrate=N/A speed=3.61x    frame=31172 fps= 87 q=-0.0 size=N/A time=00:21:40.13 bitrate=N/A speed=3.61x    frame=31216 fps= 87 q=-0.0 size=N/A time=00:21:41.96 bitrate=N/A speed=3.61x    frame=31259 fps= 87 q=-0.0 size=N/A time=00:21:43.76 bitrate=N/A speed=3.61x    frame=31302 fps= 87 q=-0.0 size=N/A time=00:21:45.55 bitrate=N/A speed=3.61x    frame=31345 fps= 87 q=-0.0 size=N/A time=00:21:47.34 bitrate=N/A speed=3.61x    frame=31390 fps= 87 q=-0.0 size=N/A time=00:21:49.22 bitrate=N/A speed=3.61x    frame=31436 fps= 87 q=-0.0 size=N/A time=00:21:51.14 bitrate=N/A speed=3.61x    frame=31481 fps= 87 q=-0.0 size=N/A time=00:21:53.02 bitrate=N/A speed=3.61x    frame=31526 fps= 87 q=-0.0 size=N/A time=00:21:54.89 bitrate=N/A speed=3.61x    frame=31574 fps= 87 q=-0.0 size=N/A time=00:21:56.89 bitrate=N/A speed=3.61x    frame=31619 fps= 87 q=-0.0 size=N/A time=00:21:58.77 bitrate=N/A speed=3.61x    frame=31666 fps= 87 q=-0.0 size=N/A time=00:22:00.73 bitrate=N/A speed=3.61x    frame=31712 fps= 87 q=-0.0 size=N/A time=00:22:02.65 bitrate=N/A speed=3.61x    frame=31757 fps= 87 q=-0.0 size=N/A time=00:22:04.53 bitrate=N/A speed=3.61x    frame=31800 fps= 87 q=-0.0 size=N/A time=00:22:06.32 bitrate=N/A speed=3.61x    frame=31846 fps= 87 q=-0.0 size=N/A time=00:22:08.24 bitrate=N/A speed=3.61x    frame=31889 fps= 87 q=-0.0 size=N/A time=00:22:10.03 bitrate=N/A speed=3.61x    frame=31936 fps= 87 q=-0.0 size=N/A time=00:22:11.99 bitrate=N/A speed=3.61x    frame=31979 fps= 87 q=-0.0 size=N/A time=00:22:13.79 bitrate=N/A speed=3.61x    frame=32021 fps= 87 q=-0.0 size=N/A time=00:22:15.54 bitrate=N/A speed=3.61x    frame=32067 fps= 87 q=-0.0 size=N/A time=00:22:17.46 bitrate=N/A speed=3.61x    frame=32111 fps= 87 q=-0.0 size=N/A time=00:22:19.29 bitrate=N/A speed=3.61x    frame=32155 fps= 87 q=-0.0 size=N/A time=00:22:21.13 bitrate=N/A speed=3.61x    frame=32199 fps= 87 q=-0.0 size=N/A time=00:22:22.96 bitrate=N/A speed=3.61x    frame=32240 fps= 87 q=-0.0 size=N/A time=00:22:24.67 bitrate=N/A speed=3.61x    frame=32287 fps= 87 q=-0.0 size=N/A time=00:22:26.63 bitrate=N/A speed=3.61x    frame=32330 fps= 87 q=-0.0 size=N/A time=00:22:28.43 bitrate=N/A speed=3.61x    frame=32372 fps= 87 q=-0.0 size=N/A time=00:22:30.18 bitrate=N/A speed=3.61x    frame=32418 fps= 87 q=-0.0 size=N/A time=00:22:32.10 bitrate=N/A speed=3.61x    frame=32460 fps= 87 q=-0.0 size=N/A time=00:22:33.85 bitrate=N/A speed=3.61x    frame=32505 fps= 87 q=-0.0 size=N/A time=00:22:35.72 bitrate=N/A speed=3.61x    frame=32550 fps= 87 q=-0.0 size=N/A time=00:22:37.60 bitrate=N/A speed=3.61x    frame=32594 fps= 87 q=-0.0 size=N/A time=00:22:39.44 bitrate=N/A speed=3.61x    frame=32639 fps= 87 q=-0.0 size=N/A time=00:22:41.31 bitrate=N/A speed=3.61x    frame=32683 fps= 87 q=-0.0 size=N/A time=00:22:43.15 bitrate=N/A speed=3.61x    frame=32729 fps= 87 q=-0.0 size=N/A time=00:22:45.07 bitrate=N/A speed=3.61x    frame=32776 fps= 87 q=-0.0 size=N/A time=00:22:47.03 bitrate=N/A speed=3.61x    frame=32819 fps= 87 q=-0.0 size=N/A time=00:22:48.82 bitrate=N/A speed=3.61x    frame=32864 fps= 87 q=-0.0 size=N/A time=00:22:50.70 bitrate=N/A speed=3.61x    frame=32910 fps= 87 q=-0.0 size=N/A time=00:22:52.62 bitrate=N/A speed=3.61x    frame=32955 fps= 87 q=-0.0 size=N/A time=00:22:54.49 bitrate=N/A speed=3.61x    frame=33001 fps= 87 q=-0.0 size=N/A time=00:22:56.41 bitrate=N/A speed=3.61x    frame=33044 fps= 87 q=-0.0 size=N/A time=00:22:58.21 bitrate=N/A speed=3.61x    frame=33089 fps= 87 q=-0.0 size=N/A time=00:23:00.08 bitrate=N/A speed=3.61x    frame=33133 fps= 87 q=-0.0 size=N/A time=00:23:01.92 bitrate=N/A speed=3.61x    frame=33177 fps= 87 q=-0.0 size=N/A time=00:23:03.75 bitrate=N/A speed=3.61x    frame=33224 fps= 87 q=-0.0 size=N/A time=00:23:05.71 bitrate=N/A speed=3.61x    frame=33268 fps= 87 q=-0.0 size=N/A time=00:23:07.55 bitrate=N/A speed=3.61x    frame=33312 fps= 87 q=-0.0 size=N/A time=00:23:09.38 bitrate=N/A speed=3.61x    frame=33357 fps= 87 q=-0.0 size=N/A time=00:23:11.26 bitrate=N/A speed=3.61x    frame=33401 fps= 87 q=-0.0 size=N/A time=00:23:13.10 bitrate=N/A speed=3.61x    frame=33446 fps= 87 q=-0.0 size=N/A time=00:23:14.97 bitrate=N/A speed=3.61x    frame=33493 fps= 87 q=-0.0 size=N/A time=00:23:16.93 bitrate=N/A speed=3.61x    frame=33537 fps= 87 q=-0.0 size=N/A time=00:23:18.77 bitrate=N/A speed=3.61x    frame=33581 fps= 87 q=-0.0 size=N/A time=00:23:20.60 bitrate=N/A speed=3.61x    frame=33624 fps= 87 q=-0.0 size=N/A time=00:23:22.40 bitrate=N/A speed=3.61x    frame=33667 fps= 87 q=-0.0 size=N/A time=00:23:24.19 bitrate=N/A speed=3.61x    frame=33713 fps= 87 q=-0.0 size=N/A time=00:23:26.11 bitrate=N/A speed=3.61x    frame=33756 fps= 87 q=-0.0 size=N/A time=00:23:27.90 bitrate=N/A speed=3.61x    frame=33798 fps= 87 q=-0.0 size=N/A time=00:23:29.65 bitrate=N/A speed=3.61x    frame=33841 fps= 87 q=-0.0 size=N/A time=00:23:31.45 bitrate=N/A speed=3.61x    frame=33885 fps= 87 q=-0.0 size=N/A time=00:23:33.28 bitrate=N/A speed=3.61x    frame=33929 fps= 87 q=-0.0 size=N/A time=00:23:35.12 bitrate=N/A speed=3.61x    frame=33974 fps= 87 q=-0.0 size=N/A time=00:23:36.99 bitrate=N/A speed=3.61x    frame=34018 fps= 87 q=-0.0 size=N/A time=00:23:38.83 bitrate=N/A speed=3.61x    frame=34062 fps= 87 q=-0.0 size=N/A time=00:23:40.66 bitrate=N/A speed=3.61x    frame=34107 fps= 87 q=-0.0 size=N/A time=00:23:42.54 bitrate=N/A speed=3.61x    frame=34151 fps= 87 q=-0.0 size=N/A time=00:23:44.38 bitrate=N/A speed=3.61x    frame=34194 fps= 87 q=-0.0 size=N/A time=00:23:46.17 bitrate=N/A speed=3.61x    frame=34238 fps= 87 q=-0.0 size=N/A time=00:23:48.00 bitrate=N/A speed=3.61x    frame=34284 fps= 87 q=-0.0 size=N/A time=00:23:49.92 bitrate=N/A speed=3.61x    frame=34328 fps= 87 q=-0.0 size=N/A time=00:23:51.76 bitrate=N/A speed=3.61x    frame=34374 fps= 87 q=-0.0 size=N/A time=00:23:53.68 bitrate=N/A speed=3.61x    frame=34416 fps= 87 q=-0.0 size=N/A time=00:23:55.43 bitrate=N/A speed=3.61x    frame=34459 fps= 87 q=-0.0 size=N/A time=00:23:57.22 bitrate=N/A speed=3.61x    frame=34502 fps= 87 q=-0.0 size=N/A time=00:23:59.02 bitrate=N/A speed=3.61x    frame=34545 fps= 87 q=-0.0 size=N/A time=00:24:00.81 bitrate=N/A speed=3.61x    frame=34588 fps= 87 q=-0.0 size=N/A time=00:24:02.60 bitrate=N/A speed=3.61x    frame=34633 fps= 87 q=-0.0 size=N/A time=00:24:04.48 bitrate=N/A speed=3.61x    frame=34676 fps= 87 q=-0.0 size=N/A time=00:24:06.27 bitrate=N/A speed=3.61x    frame=34720 fps= 87 q=-0.0 size=N/A time=00:24:08.11 bitrate=N/A speed=3.61x    frame=34765 fps= 87 q=-0.0 size=N/A time=00:24:09.99 bitrate=N/A speed=3.61x    frame=34811 fps= 87 q=-0.0 size=N/A time=00:24:11.90 bitrate=N/A speed=3.61x    frame=34857 fps= 87 q=-0.0 size=N/A time=00:24:13.82 bitrate=N/A speed=3.61x    frame=34901 fps= 87 q=-0.0 size=N/A time=00:24:15.66 bitrate=N/A speed=3.61x    frame=34945 fps= 87 q=-0.0 size=N/A time=00:24:17.49 bitrate=N/A speed=3.61x    frame=34990 fps= 87 q=-0.0 size=N/A time=00:24:19.37 bitrate=N/A speed=3.61x    frame=35036 fps= 87 q=-0.0 size=N/A time=00:24:21.29 bitrate=N/A speed=3.61x    frame=35081 fps= 87 q=-0.0 size=N/A time=00:24:23.17 bitrate=N/A speed=3.61x    frame=35125 fps= 87 q=-0.0 size=N/A time=00:24:25.00 bitrate=N/A speed=3.61x    frame=35169 fps= 87 q=-0.0 size=N/A time=00:24:26.84 bitrate=N/A speed=3.61x    frame=35215 fps= 87 q=-0.0 size=N/A time=00:24:28.75 bitrate=N/A speed=3.61x    frame=35258 fps= 87 q=-0.0 size=N/A time=00:24:30.55 bitrate=N/A speed=3.61x    frame=35303 fps= 87 q=-0.0 size=N/A time=00:24:32.42 bitrate=N/A speed=3.61x    frame=35347 fps= 87 q=-0.0 size=N/A time=00:24:34.26 bitrate=N/A speed=3.61x    frame=35392 fps= 87 q=-0.0 size=N/A time=00:24:36.14 bitrate=N/A speed=3.61x    frame=35437 fps= 87 q=-0.0 size=N/A time=00:24:38.01 bitrate=N/A speed=3.61x    frame=35482 fps= 87 q=-0.0 size=N/A time=00:24:39.89 bitrate=N/A speed=3.61x    frame=35527 fps= 87 q=-0.0 size=N/A time=00:24:41.77 bitrate=N/A speed=3.61x    frame=35573 fps= 87 q=-0.0 size=N/A time=00:24:43.69 bitrate=N/A speed=3.61x    frame=35615 fps= 87 q=-0.0 size=N/A time=00:24:45.44 bitrate=N/A speed=3.61x    [Parsed_libvmaf_10 @ 000002b95c469180] VMAF score: 95.422852
[out#0/null @ 000002b95b9cedc0] video:15314KiB audio:278940KiB subtitle:0KiB other streams:0KiB global headers:0KiB muxing overhead: unknown
frame=35639 fps= 86 q=-0.0 Lsize=N/A time=00:24:46.44 bitrate=N/A speed= 3.6x    
